<?xml version="1.0" encoding="utf-8"?>
<!-- Generator: Adobe Illustrator 16.0.0, SVG Export Plug-In . SVG Version: 6.00 Build 0)  -->
<!DOCTYPE svg PUBLIC "-//W3C//DTD SVG 1.1//EN" "http://www.w3.org/Graphics/SVG/1.1/DTD/svg11.dtd">
<svg version="1.1" id="Layer_1" xmlns="http://www.w3.org/2000/svg" xmlns:xlink="http://www.w3.org/1999/xlink" x="0px" y="0px"
	 width="403.699px" height="183.32px" viewBox="0 0 403.699 183.32" enable-background="new 0 0 403.699 183.32"
	 xml:space="preserve">
<g>
	<g>
		<path stroke="#000000" d="M59.701,72.851c-0.748-2.754-1.869-5.338-3.361-7.748s-3.258-4.506-5.295-6.285
			c-2.039-1.779-4.336-3.186-6.891-4.219s-5.268-1.551-8.139-1.551c-3.961,0-7.492,0.891-10.594,2.67s-5.699,4.133-7.795,7.061
			s-3.703,6.242-4.822,9.943c-1.121,3.703-1.68,7.506-1.68,11.408c0,4.133,0.588,8.008,1.766,11.623
			c1.176,3.617,2.855,6.76,5.039,9.428c2.182,2.668,4.822,4.777,7.924,6.328c3.1,1.551,6.545,2.324,10.334,2.324
			c2.984,0,5.783-0.545,8.396-1.635s4.938-2.525,6.977-4.305s3.762-3.832,5.168-6.156s2.369-4.721,2.887-7.189h1.033l-0.26,18.939
			h-1.033c-0.689-0.975-1.406-1.863-2.152-2.668c-0.746-0.803-1.264-1.205-1.551-1.205c-0.115,0-0.633,0.303-1.551,0.904
			s-2.238,1.262-3.961,1.979c-1.723,0.719-3.818,1.35-6.287,1.895s-5.312,0.818-8.527,0.818c-5.34,0-10.162-0.76-14.469-2.281
			c-4.307-1.52-7.971-3.672-10.99-6.457c-3.02-2.783-5.336-6.111-6.949-9.986S0.5,88.349,0.5,83.699c0-1.031,0.07-2.209,0.215-3.529
			s0.402-2.727,0.777-4.219s0.893-3.055,1.555-4.691s1.512-3.287,2.549-4.951c1.209-1.951,2.705-3.816,4.49-5.596
			c1.783-1.779,3.881-3.344,6.293-4.693c2.41-1.348,5.139-2.424,8.182-3.229c3.043-0.803,6.461-1.205,10.25-1.205
			c3.445,0,6.459,0.316,9.043,0.947c2.582,0.633,4.736,1.32,6.459,2.066s3.043,1.436,3.961,2.066
			c0.918,0.633,1.436,0.947,1.551,0.947s0.33-0.129,0.646-0.387s0.66-0.574,1.033-0.947s0.76-0.803,1.162-1.291
			s0.775-0.99,1.121-1.508h0.947v19.285L59.701,72.851z"/>
		<path stroke="#000000" d="M107.442,102.032c-1.092,2.613-2.557,4.896-4.395,6.85s-3.977,3.477-6.418,4.566
			c-2.441,1.092-5.012,1.637-7.711,1.637c-2.24,0-4.566-0.4-6.979-1.205s-4.637-2.082-6.676-3.834s-3.705-3.992-4.998-6.721
			s-1.938-5.932-1.938-9.609c0-2.64,0.502-5.197,1.508-7.667c1.004-2.469,2.412-4.652,4.221-6.547s3.992-3.418,6.549-4.566
			c2.555-1.148,5.383-1.725,8.484-1.725c2.297,0,4.623,0.432,6.979,1.293s4.494,2.139,6.418,3.834s3.504,3.82,4.738,6.377
			s1.854,5.557,1.854,9.001C109.079,96.646,108.532,99.419,107.442,102.032z M100.432,87.363c-0.432-2.238-1.137-4.307-2.113-6.201
			c-0.979-1.895-2.271-3.461-3.881-4.695s-3.594-1.852-5.949-1.852c-1.898,0-3.594,0.574-5.088,1.723
			c-1.496,1.148-2.775,2.656-3.838,4.521c-1.064,1.867-1.869,3.963-2.416,6.287c-0.547,2.326-0.818,4.695-0.818,7.105
			c0,2.641,0.229,5.139,0.689,7.492c0.459,2.355,1.207,4.436,2.242,6.244s2.357,3.244,3.967,4.307s3.537,1.594,5.779,1.594
			s4.125-0.674,5.648-2.023s2.758-3.043,3.707-5.082c0.949-2.037,1.639-4.232,2.07-6.588c0.43-2.354,0.646-4.535,0.646-6.547
			C101.079,91.697,100.862,89.601,100.432,87.363z"/>
		<path stroke="#000000" d="M159.34,114.835v-0.949c1.551-0.113,2.727-0.301,3.531-0.561c0.803-0.258,1.205-0.848,1.205-1.77V89.546
			c0-3.336-0.59-5.998-1.77-7.982s-3.268-2.979-6.26-2.979c-1.9,0-3.484,0.504-4.75,1.512s-2.59,2.287-3.971,3.84v27.876
			c0,0.404,0.143,0.75,0.43,1.037c0.287,0.289,0.66,0.504,1.119,0.648s0.961,0.258,1.508,0.344c0.545,0.086,1.076,0.158,1.594,0.215
			v0.777H135.12v-0.949c1.551-0.113,2.785-0.301,3.703-0.561c0.918-0.258,1.379-0.848,1.379-1.77V89.46
			c0-3.395-0.59-6.055-1.77-7.982s-3.268-2.893-6.26-2.893c-1.9,0-3.455,0.404-4.664,1.209s-2.561,2.014-4.057,3.625v28.308
			c0.113,0.576,0.314,0.994,0.602,1.252c0.287,0.26,0.646,0.447,1.078,0.562c0.43,0.115,0.904,0.188,1.42,0.215
			c0.516,0.029,1.062,0.102,1.637,0.215v0.863h-16.684v-0.861c1.32-0.113,2.453-0.373,3.4-0.775s1.422-1.062,1.422-1.982V81.742
			c0-0.459-0.043-0.803-0.129-1.033s-0.33-0.488-0.732-0.775c-0.518-0.287-1.121-0.617-1.809-0.992
			c-0.689-0.373-1.379-0.703-2.066-0.99v-0.689l11.26-4.051h0.477v9.307l0.172,0.086c0.574-1.033,1.32-2.109,2.238-3.23
			s1.979-2.125,3.184-3.016c1.203-0.891,2.508-1.637,3.914-2.24s2.883-0.906,4.432-0.906c2.754,0,4.977,0.906,6.67,2.715
			c1.691,1.811,2.738,4.238,3.141,7.281h0.258c0.514-1.033,1.229-2.139,2.145-3.316s1.975-2.27,3.178-3.275
			c1.201-1.004,2.531-1.822,3.992-2.455c1.459-0.633,2.961-0.949,4.508-0.949c3.32,0,5.824,1.207,7.512,3.619
			c1.688,2.414,2.533,5.516,2.533,9.309v25.681c0,0.402,0.172,0.748,0.518,1.035c0.344,0.287,0.76,0.502,1.248,0.645
			c0.488,0.145,1.02,0.26,1.594,0.346s1.119,0.158,1.637,0.215v0.775H159.34z"/>
		<path stroke="#000000" d="M220,100.929c-1.117,2.754-2.707,5.121-4.77,7.102s-4.584,3.529-7.562,4.648
			c-2.98,1.119-6.332,1.678-10.055,1.678c-1.031,0-2.049-0.027-3.051-0.086c-1.004-0.057-2.049-0.201-3.137-0.432
			c0,0.805,0.01,1.979,0.031,3.529c0.02,1.549,0.041,3.184,0.062,4.908c0.02,1.721,0.031,3.414,0.031,5.078s0,3.012,0,4.045
			c0.113,0.516,0.43,0.904,0.947,1.164c0.516,0.256,1.133,0.457,1.852,0.602c0.717,0.143,1.463,0.242,2.238,0.301
			c0.775,0.057,1.451,0.113,2.025,0.172v0.947h-21.203v-0.947c0.574-0.059,1.262-0.158,2.066-0.301
			c0.805-0.145,1.564-0.33,2.283-0.559c0.717-0.23,1.32-0.518,1.809-0.859c0.488-0.346,0.732-0.748,0.732-1.205V83.05
			c0-0.457-0.045-0.801-0.131-1.031c-0.086-0.229-0.33-0.486-0.73-0.775c-0.518-0.285-1.35-0.701-2.498-1.246
			s-2.068-0.961-2.756-1.248v-0.52l12.74-5.02h0.5v9.641l0.086,0.174c0.801-1.09,1.689-2.209,2.664-3.357
			c0.973-1.148,2.062-2.195,3.266-3.143c1.203-0.945,2.506-1.734,3.91-2.367c1.402-0.631,2.936-0.947,4.598-0.947
			c2.691,0,5.027,0.547,7.004,1.637s3.609,2.525,4.898,4.303c1.289,1.779,2.248,3.787,2.879,6.025
			c0.629,2.238,0.945,4.506,0.945,6.801C221.676,95.19,221.118,98.175,220,100.929z M213.155,88.396
			c-0.516-1.895-1.301-3.547-2.357-4.953c-1.059-1.406-2.4-2.525-4.029-3.357s-3.529-1.25-5.701-1.25
			c-1.486,0-2.814,0.273-3.986,0.818c-1.172,0.547-2.174,1.178-3.002,1.895c-0.828,0.719-1.457,1.451-1.885,2.197
			c-0.43,0.746-0.643,1.291-0.643,1.635c0,1.148-0.021,2.369-0.062,3.66c-0.043,1.293-0.062,2.426-0.062,3.402
			c0,2.355,0,4.191,0,5.512s0.041,2.643,0.125,3.963c0.113,1.207,0.314,2.455,0.6,3.746c0.285,1.293,0.771,2.469,1.457,3.531
			s1.629,1.924,2.83,2.584c1.199,0.66,2.742,0.99,4.629,0.99c1.656,0,3.258-0.459,4.801-1.377s2.914-2.182,4.115-3.791
			c1.199-1.607,2.156-3.531,2.871-5.77s1.072-4.68,1.072-7.322C213.926,92.33,213.668,90.291,213.155,88.396z"/>
		<path stroke="#000000" d="M254.551,114.96h-0.602l-0.004-8.746l-0.121-0.086c-0.631,0.977-1.404,2.012-2.322,3.102
			s-1.949,2.08-3.094,2.971c-1.146,0.891-2.422,1.594-3.826,2.109c-1.404,0.518-2.908,0.775-4.512,0.775
			c-3.668,0-6.377-1.09-8.125-3.273c-1.748-2.182-2.621-5.369-2.621-9.561V81.234c0-0.229,0-0.545,0-0.947
			c0-0.4-0.025-0.816-0.076-1.248c-0.051-0.43-0.088-0.832-0.111-1.205c-0.025-0.373-0.088-0.646-0.188-0.82
			c-0.23-0.516-0.561-0.887-0.99-1.117s-0.904-0.402-1.42-0.518c-0.518-0.115-1.062-0.188-1.637-0.217
			c-0.574-0.027-1.121-0.07-1.637-0.129v-0.947h13.184v25.029c0,3.785,0.576,6.582,1.732,8.387c1.154,1.807,3.32,2.709,6.498,2.709
			c1.211,0,2.266-0.156,3.16-0.473c0.895-0.314,1.703-0.715,2.426-1.203s1.387-1.047,1.994-1.678
			c0.605-0.631,1.17-1.291,1.689-1.979V80.365c0-0.574-0.059-1.305-0.172-2.193c-0.115-0.889-0.346-1.562-0.689-2.021
			c-0.689-0.285-1.623-0.516-2.799-0.688c-1.178-0.172-2.398-0.316-3.66-0.432v-0.945h14.445v33.996
			c0,0.459,0.043,0.803,0.129,1.033s0.33,0.488,0.732,0.773c0.516,0.289,1.277,0.662,2.281,1.121s1.852,0.832,2.543,1.117v0.531
			L254.551,114.96z"/>
		<path stroke="#000000" d="M295.704,79.335h-13.092v22.646c0,2.93,0.631,5.053,1.895,6.373c1.262,1.32,2.898,1.98,4.91,1.98
			c1.664,0,3.041-0.271,4.133-0.818c1.09-0.545,2.037-1.393,2.842-2.541l0.518,0.26c-0.346,0.861-0.82,1.764-1.422,2.709
			c-0.604,0.945-1.408,1.805-2.412,2.574c-1.004,0.771-2.182,1.371-3.529,1.799c-1.35,0.43-2.943,0.643-4.779,0.643
			c-1.207,0-2.361-0.186-3.467-0.559s-2.082-0.918-2.93-1.635s-1.541-1.52-2.078-2.41c-0.537-0.889-0.805-1.793-0.805-2.711
			c0-5.391,0.02-10.512,0.062-15.359c0.041-4.848,0.062-9.164,0.062-12.951h-6.287v-0.947l12.475-11.803h0.688v7.5h15.887
			L295.704,79.335z"/>
		<path stroke="#000000" d="M333.598,106.067c-0.805,1.578-1.896,3.027-3.275,4.344s-3.031,2.404-4.957,3.262
			c-1.926,0.859-4.066,1.287-6.422,1.287c-2.932,0-5.604-0.545-8.018-1.639c-2.414-1.092-4.469-2.631-6.164-4.615
			s-3.004-4.312-3.922-6.986c-0.92-2.674-1.379-5.506-1.379-8.498c0-2.414,0.43-4.814,1.293-7.201
			c0.861-2.387,2.082-4.527,3.664-6.426c1.58-1.898,3.506-3.436,5.775-4.615s4.785-1.77,7.543-1.77c2.242,0,4.354,0.289,6.336,0.863
			c1.982,0.576,3.707,1.455,5.172,2.635s2.658,2.662,3.578,4.447s1.467,3.887,1.639,6.305h-27.75c0,0.461-0.021,0.994-0.062,1.598
			c-0.043,0.605-0.062,1.223-0.062,1.855c0,2.417,0.344,4.732,1.035,6.947c0.689,2.215,1.695,4.172,3.02,5.869
			c1.324,1.699,2.992,3.037,5.006,4.014c2.014,0.979,4.344,1.467,6.992,1.467c2.875,0,5.393-0.73,7.551-2.195
			c2.156-1.465,3.58-3.26,4.271-5.385l0.689,0.172C334.92,103.067,334.403,104.489,333.598,106.067z M325.758,76.984
			c-1.469-1.521-3.439-2.283-5.916-2.283c-1.613,0-3.066,0.475-4.361,1.422s-2.418,2.053-3.367,3.316
			c-0.951,1.264-1.686,2.541-2.203,3.832c-0.52,1.293-0.836,2.283-0.949,2.971c1.324,0,2.504,0,3.541,0
			c1.035,0,2.059-0.014,3.066-0.043c1.008-0.027,2.059-0.057,3.152-0.086c1.094-0.027,2.303-0.043,3.627-0.043
			c0.863,0,1.668-0.027,2.418-0.086c0.748-0.057,1.41-0.201,1.986-0.432c0.402-0.457,0.703-0.889,0.906-1.291
			c0.201-0.402,0.303-1.004,0.303-1.809C327.961,80.328,327.227,78.505,325.758,76.984z"/>
		<path stroke="#000000" d="M367.502,80.957c-0.746,0.836-1.607,1.254-2.584,1.254c-0.918,0-1.65-0.158-2.195-0.477
			c-0.547-0.318-1.02-0.68-1.422-1.086c-0.402-0.404-0.834-0.766-1.293-1.084s-1.09-0.479-1.893-0.479
			c-0.691,0-1.365,0.244-2.025,0.732s-1.277,1.107-1.852,1.854s-1.092,1.594-1.551,2.541s-0.861,1.852-1.205,2.713v24.808
			c0.172,0.518,0.545,0.92,1.119,1.207s1.219,0.488,1.938,0.604s1.465,0.188,2.24,0.215c0.773,0.029,1.449,0.102,2.023,0.215v0.861
			h-19.268v-0.861c1.32-0.113,2.453-0.373,3.4-0.775s1.422-1.062,1.422-1.982V82.097c0-0.459-0.043-0.803-0.129-1.033
			s-0.33-0.488-0.732-0.775c-0.518-0.287-1.121-0.646-1.809-1.076c-0.689-0.43-1.379-0.789-2.066-1.078v-0.518l11.26-4.406h0.523
			l-0.172,11.979h0.166c0.285-0.688,0.744-1.693,1.377-3.016c0.631-1.32,1.434-2.656,2.41-4.008c0.977-1.35,2.152-2.514,3.531-3.49
			c1.377-0.977,2.955-1.465,4.736-1.465c1.436,0,2.656,0.434,3.66,1.299s1.508,1.961,1.508,3.287
			C368.622,79.066,368.249,80.121,367.502,80.957z"/>
		<path stroke="#000000" d="M399.934,108.03c-0.887,1.637-2.076,2.971-3.564,4.004s-3.191,1.779-5.109,2.238
			s-3.938,0.688-6.057,0.688c-2.52,0-4.896-0.229-7.129-0.688c-2.234-0.459-4.295-1.119-6.184-1.98v-11.363h0.625
			c0.457,1.379,1.027,2.828,1.715,4.348c0.688,1.521,1.518,2.928,2.49,4.219s2.145,2.352,3.518,3.184s3.004,1.248,4.893,1.248
			c2.746,0,4.934-0.789,6.564-2.367c1.629-1.578,2.445-4.002,2.445-7.273c0-1.779-0.559-3.258-1.674-4.434s-2.645-1.965-4.588-2.367
			c-1.545-0.285-3.031-0.602-4.461-0.945s-2.717-0.719-3.861-1.121c-2.174-0.746-3.932-2.037-5.275-3.873
			c-1.344-1.836-2.016-4.047-2.016-6.629c0-1.777,0.375-3.385,1.127-4.82c0.75-1.434,1.762-2.668,3.031-3.701
			s2.738-1.822,4.402-2.367s3.445-0.818,5.342-0.818c2.41,0,4.535,0.217,6.373,0.646c1.836,0.43,3.588,0.961,5.252,1.592
			l1.035,10.674l-0.689,0.172c-0.805-1.721-1.607-3.312-2.412-4.777c-0.805-1.463-1.693-2.725-2.67-3.787
			c-0.977-1.061-2.082-1.879-3.316-2.453s-2.656-0.861-4.262-0.861c-0.977,0-1.939,0.174-2.887,0.518s-1.779,0.846-2.496,1.506
			c-0.719,0.66-1.307,1.492-1.766,2.496c-0.461,1.004-0.689,2.166-0.689,3.486c0,2.125,0.6,3.645,1.803,4.562
			s2.721,1.607,4.555,2.066c1.26,0.287,2.635,0.588,4.123,0.904s2.777,0.617,3.867,0.902c2.576,0.633,4.766,1.953,6.57,3.96
			s2.707,4.477,2.707,7.402C401.266,104.458,400.821,106.396,399.934,108.03z"/>
	</g>
	<g>
		<path stroke="#000000" d="M120.116,62.451v-0.861c2.12-0.172,3.896-0.559,5.331-1.162c1.434-0.604,2.379-1.278,2.838-2.024
			c0.115-0.173,0.216-0.517,0.3-1.034c0.086-0.517,0.158-1.119,0.215-1.808c0.059-0.688,0.101-1.405,0.131-2.152
			c0.029-0.747,0.044-1.466,0.044-2.154c0.069-1.896,0.104-3.847,0.104-5.856c0-2.068,0-3.99,0-5.771c0-1.837,0-3.445,0-4.823
			c0-1.434,0-2.439,0-3.014h-34.02v18.516c0,1.667,0.028,3.275,0.085,4.823c0.058,1.551,0.315,2.642,0.774,3.273
			c0.688,0.976,1.662,1.723,2.924,2.239c1.26,0.517,2.494,0.832,3.698,0.947v0.861H77.161v-0.86
			c1.434-0.228,2.809-0.614,4.128-1.158c1.319-0.545,2.322-1.218,3.011-2.02c0.228-0.286,0.413-0.759,0.558-1.417
			s0.259-1.416,0.345-2.276c0.085-0.859,0.157-1.79,0.215-2.792s0.087-1.963,0.087-2.879c0-0.801,0.017-1.889,0.053-3.264
			c0.034-1.375,0.069-2.878,0.105-4.51c0.034-1.633,0.052-3.309,0.052-5.027c0-1.775,0-3.436,0-4.982V14.46c0-1.033,0-2.067,0-3.102
			c0-1.034-0.044-1.995-0.129-2.886c-0.085-0.889-0.215-1.694-0.386-2.413c-0.172-0.719-0.43-1.278-0.774-1.68
			c-0.804-0.976-1.793-1.68-2.968-2.111c-1.175-0.43-2.507-0.732-3.997-0.906V0.5h25.635v0.861
			c-0.804,0.115-1.664,0.286-2.581,0.515c-0.919,0.23-1.749,0.589-2.494,1.076c-0.745,0.487-1.377,1.16-1.892,2.02
			c-0.517,0.859-0.804,1.949-0.859,3.268c-0.071,2.006-0.123,4.17-0.158,6.492c-0.036,2.323-0.052,4.544-0.052,6.666
			c0,2.064,0,3.898,0,5.503c0,1.549,0,2.608,0,3.183h34.02c0-1.834,0-3.498,0-4.988c0-1.548,0-3.037,0-4.471
			c0-1.435,0-2.896,0-4.386s-0.035-3.181-0.104-5.075c-0.06-1.089-0.132-2.221-0.217-3.396s-0.357-2.136-0.815-2.881
			c-1.033-1.549-2.208-2.509-3.527-2.881c-1.318-0.373-2.637-0.587-3.953-0.645V0.5h25.893v0.86
			c-1.376,0.174-2.723,0.561-4.042,1.163S140.018,4,139.389,5.146c-0.23,0.402-0.402,0.961-0.518,1.678s-0.199,1.519-0.258,2.408
			c-0.057,0.889-0.085,1.793-0.085,2.71c0,0.919,0,1.808,0,2.668v14.712c0,2.123,0,4.045,0,5.766c0,1.664,0,3.327,0,4.989
			c0,1.608,0.017,3.271,0.053,4.992c0.034,1.722,0.052,3.614,0.052,5.679c0,1.663,0.043,3.197,0.131,4.602
			c0.084,1.406,0.3,2.367,0.645,2.883c0.744,1.148,1.747,1.951,3.008,2.41c1.262,0.459,2.639,0.773,4.131,0.946v0.86H120.116z"/>
		<path stroke="#000000" d="M187.161,49.633c-1.09,2.608-2.551,4.886-4.383,6.835s-3.965,3.469-6.4,4.558s-4.997,1.634-7.688,1.634
			c-2.234,0-4.555-0.4-6.959-1.203c-2.406-0.803-4.625-2.078-6.658-3.826c-2.035-1.75-3.695-3.984-4.982-6.707
			c-1.29-2.724-1.934-5.92-1.934-9.588c0-2.637,0.501-5.188,1.504-7.652c1.002-2.464,2.404-4.643,4.209-6.536
			c1.805-1.892,3.98-3.411,6.53-4.558c2.548-1.145,5.368-1.719,8.462-1.719c2.291,0,4.609,0.43,6.957,1.289
			c2.35,0.859,4.482,2.137,6.402,3.828c1.918,1.691,3.492,3.812,4.725,6.361c1.23,2.552,1.848,5.547,1.848,8.986
			C188.793,44.259,188.249,47.025,187.161,49.633z M180.168,35.019c-0.43-2.236-1.133-4.301-2.107-6.191
			c-0.975-1.893-2.264-3.454-3.869-4.688c-1.604-1.232-3.582-1.85-5.932-1.85c-1.893,0-3.584,0.574-5.073,1.72
			c-1.489,1.147-2.767,2.651-3.825,4.515c-1.061,1.864-1.863,3.956-2.407,6.277c-0.545,2.323-0.817,4.688-0.817,7.096
			c0,2.639,0.229,5.132,0.688,7.481c0.458,2.351,1.203,4.43,2.234,6.234c1.032,1.806,2.352,3.24,3.955,4.3
			c1.605,1.061,3.526,1.59,5.761,1.59c2.235,0,4.113-0.673,5.632-2.02c1.52-1.348,2.752-3.039,3.697-5.074s1.635-4.229,2.064-6.579
			c0.43-2.35,0.645-4.528,0.645-6.534C180.813,39.347,180.598,37.255,180.168,35.019z"/>
		<path stroke="#000000" d="M254.122,22.934c-0.717,0.058-1.42,0.243-2.107,0.558c-0.689,0.314-1.361,0.803-2.021,1.462
			s-1.246,1.59-1.762,2.794c-0.689,1.604-1.506,3.481-2.451,5.631c-0.947,2.148-1.922,4.4-2.926,6.75
			c-1.004,2.349-2.006,4.686-3.008,7.005c-1.004,2.321-1.906,4.485-2.709,6.49c-0.518,1.089-0.947,2.021-1.291,2.796
			c-0.346,0.773-0.66,1.461-0.945,2.062c-0.287,0.602-0.559,1.189-0.816,1.762c-0.26,0.574-0.561,1.204-0.902,1.892
			c-0.23,0.349-0.49,0.524-0.775,0.524c-0.287,0-0.475-0.061-0.559-0.178c-0.086-0.121-0.158-0.271-0.215-0.451
			c-0.746-2.233-1.463-4.366-2.15-6.4c-0.688-2.033-1.406-4.139-2.15-6.313s-1.547-4.553-2.406-7.13
			c-0.859-2.578-1.863-5.527-3.012-8.85l-8.168,21.318c-0.805,1.549-1.406,2.865-1.807,3.955c-0.402,1.09-0.889,2.264-1.461,3.524
			c-0.23,0.349-0.518,0.524-0.859,0.524c-0.287,0-0.545-0.209-0.775-0.629c-2.236-5.443-4.414-10.742-6.535-15.896
			c-2.123-5.155-4.387-10.627-6.793-16.413c-0.344-0.802-0.732-1.677-1.162-2.622s-0.873-1.789-1.334-2.534
			c-0.344-0.286-0.844-0.644-1.504-1.073s-1.934-0.672-3.826-0.731v-0.945h19.348v0.946c-0.402,0.059-0.873,0.115-1.418,0.173
			s-1.09,0.157-1.635,0.3c-0.545,0.145-1.061,0.303-1.547,0.473c-0.488,0.172-0.877,0.402-1.162,0.688
			c0.115,0.459,0.559,1.708,1.332,3.742c0.775,2.035,1.734,4.457,2.881,7.267c1.146,2.809,2.379,5.79,3.699,8.942
			c1.318,3.154,2.523,6.048,3.611,8.685c0.459-1.146,1.004-2.522,1.635-4.126c0.631-1.605,1.318-3.383,2.064-5.332
			c0.744-1.949,1.504-3.985,2.277-6.107c0.775-2.119,1.535-4.213,2.279-6.276c-0.402-1.146-0.832-2.249-1.289-3.312
			c-0.459-1.059-0.975-2.105-1.549-3.138c-0.172-0.171-0.33-0.358-0.473-0.558c-0.145-0.201-0.373-0.402-0.689-0.603
			c-0.314-0.2-0.76-0.372-1.332-0.517c-0.574-0.143-1.377-0.242-2.406-0.301v-0.946h19.607v0.946
			c-0.459,0.059-1.033,0.13-1.721,0.215c-0.689,0.086-1.363,0.215-2.021,0.388c-0.66,0.173-1.232,0.415-1.721,0.729
			c-0.486,0.315-0.729,0.789-0.729,1.42c0,0.287,0.156,0.961,0.473,2.021c0.314,1.06,0.729,2.363,1.246,3.91
			c0.516,1.549,1.102,3.27,1.762,5.16c0.66,1.894,1.332,3.785,2.021,5.677c0.688,1.892,1.361,3.741,2.021,5.546
			c0.66,1.806,1.246,3.397,1.762,4.771c0.344-0.744,0.832-1.847,1.461-3.309c0.631-1.462,1.305-3.096,2.021-4.902
			s1.463-3.67,2.236-5.59c0.775-1.919,1.463-3.726,2.064-5.417c0.6-1.691,1.102-3.196,1.504-4.515
			c0.4-1.319,0.604-2.236,0.604-2.752c0-0.802-0.188-1.419-0.561-1.849s-0.83-0.745-1.375-0.944
			c-0.545-0.201-1.133-0.33-1.764-0.388c-0.629-0.058-1.203-0.114-1.719-0.173v-0.946h15.736v0.945
			C255.538,22.82,254.836,22.876,254.122,22.934z"/>
	</g>
	<g>
		<path stroke="#000000" stroke-width="1.0944" d="M293.542,122.46c-1.005,0.635-1.594,1.064-1.768,1.295
			c-0.172,0.172-0.43,0.461-0.773,0.863c-0.348,0.402-0.749,0.963-1.208,1.682c-0.46,0.721-0.947,1.641-1.467,2.762
			c-0.517,1.123-1.062,2.516-1.634,4.184c-0.922,2.818-1.985,5.939-3.189,9.361c-1.209,3.424-2.43,6.947-3.663,10.57
			c-1.235,3.625-2.486,7.264-3.751,10.914c-1.264,3.654-2.443,7.119-3.533,10.398l-3.619,8.283h-0.861
			c-1.553-4.141-3.004-8.111-4.354-11.908c-1.352-3.797-2.643-7.447-3.879-10.955c-1.235-3.51-2.428-6.918-3.578-10.227
			c-1.15-3.307-2.326-6.57-3.532-9.793c-0.921,2.646-1.896,5.424-2.932,8.328c-1.034,2.904-2.066,5.854-3.101,8.844
			c-1.033,2.99-2.07,5.938-3.104,8.842c-1.037,2.906-2.041,5.711-3.016,8.412l-3.793,8.457h-1.033
			c-1.782-4.66-3.461-9.09-5.042-13.287c-1.583-4.197-3.104-8.24-4.567-12.123c-1.465-3.881-2.89-7.65-4.268-11.303
			c-1.381-3.654-2.759-7.291-4.135-10.916c-0.404-1.092-0.764-2.041-1.082-2.846c-0.314-0.807-0.602-1.555-0.859-2.246
			c-0.261-0.686-0.533-1.35-0.82-1.982s-0.602-1.295-0.945-1.984c-0.172-0.344-0.418-0.775-0.734-1.295
			c-0.316-0.516-0.764-1.021-1.336-1.51c-0.573-0.488-1.266-0.92-2.068-1.293c-0.802-0.375-1.836-0.592-3.102-0.648v-0.949h24.303
			v0.863c-0.286,0-0.775,0.057-1.463,0.174c-0.69,0.115-1.409,0.316-2.156,0.602c-0.746,0.289-1.393,0.721-1.939,1.297
			c-0.545,0.574-0.816,1.352-0.816,2.328c0,0.518,0.301,1.713,0.904,3.582c0.602,1.867,1.391,4.139,2.367,6.812
			c0.979,2.678,2.055,5.596,3.232,8.758c1.178,3.164,2.354,6.285,3.533,9.363s2.285,5.953,3.32,8.627
			c1.033,2.676,1.866,4.877,2.5,6.602c0.17-0.459,0.6-1.652,1.292-3.58c0.687-1.926,1.554-4.342,2.586-7.246
			c1.034-2.906,2.183-6.186,3.448-9.838c1.264-3.652,2.527-7.463,3.793-11.434c-0.863-2.301-1.641-4.326-2.33-6.082
			c-0.689-1.752-1.436-3.463-2.24-5.133c-0.229-0.461-0.531-0.949-0.904-1.467c-0.375-0.518-0.892-1.02-1.553-1.51
			c-0.66-0.49-1.479-0.895-2.455-1.209c-0.978-0.318-2.154-0.504-3.535-0.561v-0.949h26.98v0.863
			c-0.347,0.057-0.966,0.143-1.855,0.258c-0.892,0.115-1.781,0.33-2.67,0.646c-0.893,0.316-1.696,0.764-2.416,1.34
			c-0.716,0.576-1.074,1.293-1.074,2.156c0,0.344,0.312,1.51,0.945,3.492c0.631,1.988,1.437,4.402,2.416,7.25
			c0.975,2.848,2.066,5.939,3.271,9.275c1.207,3.336,2.357,6.543,3.447,9.619c1.092,3.08,2.082,5.84,2.973,8.283
			c0.891,2.445,1.54,4.215,1.941,5.307c0.174-0.4,0.471-1.25,0.904-2.547c0.431-1.293,0.975-2.873,1.64-4.744
			c0.659-1.869,1.378-3.955,2.153-6.256c0.774-2.299,1.549-4.645,2.326-7.031c0.775-2.385,1.553-4.771,2.328-7.16
			c0.774-2.387,1.479-4.615,2.111-6.689c0.803-2.645,1.263-4.57,1.379-5.779c0.114-1.207,0.172-2.1,0.172-2.676
			c0-0.861-0.258-1.566-0.776-2.113c-0.515-0.547-1.148-1.006-1.894-1.381c-0.749-0.371-1.553-0.66-2.414-0.861
			c-0.863-0.201-1.641-0.332-2.328-0.389v-0.863h18.962v0.863C295.771,121.427,294.545,121.827,293.542,122.46z"/>
		<path stroke="#000000" stroke-width="1.0944" d="M324.572,169.724c-1.091,2.613-2.559,4.895-4.398,6.848
			c-1.837,1.953-3.979,3.477-6.421,4.564c-2.441,1.092-5.011,1.637-7.713,1.637c-2.24,0-4.568-0.402-6.981-1.207
			c-2.415-0.803-4.642-2.08-6.681-3.832c-2.039-1.75-3.705-3.99-4.998-6.719c-1.292-2.727-1.938-5.928-1.938-9.604
			c0-2.643,0.501-5.197,1.507-7.668c1.004-2.469,2.412-4.65,4.225-6.545c1.81-1.893,3.992-3.416,6.549-4.564
			s5.385-1.725,8.492-1.725c2.297,0,4.625,0.434,6.98,1.295c2.354,0.861,4.498,2.139,6.42,3.832c1.924,1.693,3.506,3.816,4.74,6.373
			c1.236,2.557,1.854,5.557,1.854,9.002C326.208,164.339,325.663,167.112,324.572,169.724z M317.493,155.005
			c-0.428-2.24-1.129-4.309-2.103-6.205c-0.972-1.896-2.259-3.461-3.862-4.697c-1.6-1.234-3.574-1.852-5.918-1.852
			c-1.887,0-3.575,0.574-5.063,1.723c-1.487,1.148-2.759,2.656-3.819,4.523c-1.057,1.869-1.857,3.965-2.4,6.291
			c-0.544,2.328-0.814,4.699-0.814,7.113c0,2.641,0.227,5.139,0.686,7.496c0.459,2.355,1.203,4.439,2.23,6.25
			c1.03,1.811,2.344,3.246,3.948,4.309c1.603,1.064,3.516,1.594,5.746,1.594c2.233,0,4.106-0.674,5.622-2.023
			c1.514-1.352,2.742-3.049,3.689-5.086c0.942-2.041,1.631-4.238,2.059-6.592c0.428-2.357,0.646-4.541,0.646-6.553
			C318.139,159.341,317.92,157.245,317.493,155.005z"/>
		<path stroke="#000000" stroke-width="1.0944" d="M357.477,148.681c-0.75,0.84-1.611,1.258-2.585,1.258
			c-0.919,0-1.653-0.16-2.2-0.48c-0.547-0.322-1.019-0.686-1.42-1.092c-0.402-0.406-0.833-0.771-1.293-1.094
			c-0.461-0.32-1.094-0.48-1.897-0.48c-0.686,0-1.364,0.242-2.022,0.73c-0.664,0.488-1.281,1.105-1.855,1.852
			c-0.573,0.746-1.091,1.594-1.549,2.537c-0.461,0.947-0.862,1.852-1.209,2.711v24.779c0.172,0.518,0.546,0.918,1.121,1.205
			c0.574,0.287,1.221,0.486,1.939,0.602c0.719,0.117,1.463,0.188,2.24,0.215c0.776,0.029,1.452,0.102,2.025,0.215v0.859h-19.266
			v-0.859c1.322-0.113,2.457-0.373,3.406-0.775c0.945-0.402,1.421-1.059,1.421-1.979V149.8c0-0.457-0.044-0.801-0.13-1.031
			c-0.084-0.229-0.329-0.488-0.732-0.777c-0.517-0.285-1.121-0.643-1.809-1.074c-0.691-0.43-1.379-0.789-2.068-1.076v-0.518
			l11.254-4.414h0.498l-0.172,11.969h0.179c0.292-0.688,0.753-1.691,1.386-3.01c0.631-1.322,1.436-2.656,2.412-4.006
			c0.979-1.35,2.154-2.512,3.533-3.488c1.381-0.975,2.961-1.465,4.741-1.465c1.437,0,2.657,0.436,3.661,1.303
			c1.008,0.867,1.51,1.969,1.51,3.301C358.596,146.786,358.223,147.843,357.477,148.681z"/>
		<path stroke="#000000" stroke-width="1.0944" d="M382.296,182.497v-0.859c1.147-0.059,2.109-0.174,2.886-0.346
			c0.773-0.172,1.164-0.66,1.164-1.465c0-0.346-0.391-1.137-1.164-2.371c-0.776-1.236-1.695-2.656-2.759-4.266
			c-1.062-1.607-2.185-3.26-3.362-4.957c-1.177-1.691-2.196-3.117-3.059-4.266c-0.92-1.264-1.754-1.896-2.499-1.896
			c-0.288,0-0.532,0.016-0.733,0.043c-0.201,0.029-0.417,0.102-0.645,0.217v16.893c0,0.518,0.145,0.922,0.429,1.207
			c0.288,0.287,0.661,0.502,1.121,0.646s0.977,0.244,1.552,0.301c0.573,0.059,1.148,0.143,1.725,0.26v0.859H359.84v-0.859
			c1.32-0.113,2.512-0.328,3.578-0.645c1.061-0.316,1.593-1.02,1.593-2.111v-48.641c0-0.459-0.03-0.818-0.087-1.076
			c-0.056-0.258-0.287-0.531-0.688-0.816c-0.402-0.287-1.021-0.646-1.855-1.078c-0.832-0.43-1.623-0.848-2.368-1.248v-0.518
			l11.425-5.252h0.688v41.152c1.664-1.379,3.475-2.945,5.429-4.699c1.953-1.752,3.764-3.447,5.431-5.084
			c1.664-1.637,3.043-3.074,4.136-4.309c1.093-1.236,1.64-2.057,1.64-2.457c0-0.402-0.232-0.732-0.692-0.99
			s-1.036-0.475-1.724-0.648c-0.689-0.172-1.436-0.312-2.24-0.428c-0.803-0.115-1.554-0.174-2.24-0.174v-0.861h21.115v0.861
			c-0.173,0-0.719,0.045-1.64,0.129c-0.918,0.086-1.993,0.287-3.229,0.604c-1.235,0.316-2.559,0.762-3.965,1.336
			c-1.407,0.574-2.716,1.379-3.922,2.412c-1.838,1.551-3.648,3.146-5.429,4.781c-1.78,1.641-3.446,3.176-4.999,4.613
			c2.526,3.852,4.911,7.455,7.152,10.812c2.24,3.357,4.197,6.127,5.864,8.307c2.007,2.643,3.704,4.479,5.081,5.51
			c0.461,0.117,1.178,0.229,2.154,0.346c0.979,0.115,2.013,0.172,3.104,0.172v0.859H382.296z"/>
	</g>
</g>
<g>
	<g>
		<linearGradient id="SVGID_1_" gradientUnits="userSpaceOnUse" x1="305.395" y1="127.5146" x2="305.395" y2="129.8369">
			<stop  offset="0" style="stop-color:#111111"/>
			<stop  offset="0.1636" style="stop-color:#D9DADC"/>
			<stop  offset="0.3047" style="stop-color:#FFFFFF"/>
			<stop  offset="0.4118" style="stop-color:#A5A7A9"/>
			<stop  offset="0.8331" style="stop-color:#000000"/>
			<stop  offset="0.855" style="stop-color:#000000"/>
			<stop  offset="0.9469" style="stop-color:#000000"/>
		</linearGradient>
		<rect x="298.433" y="127.493" fill="url(#SVGID_1_)" width="13.924" height="2.322"/>
		<linearGradient id="SVGID_2_" gradientUnits="userSpaceOnUse" x1="350.2407" y1="127.5146" x2="350.2407" y2="129.8369">
			<stop  offset="0" style="stop-color:#111111"/>
			<stop  offset="0.1636" style="stop-color:#D9DADC"/>
			<stop  offset="0.3047" style="stop-color:#FFFFFF"/>
			<stop  offset="0.4118" style="stop-color:#A5A7A9"/>
			<stop  offset="0.8331" style="stop-color:#000000"/>
			<stop  offset="0.855" style="stop-color:#000000"/>
			<stop  offset="0.9469" style="stop-color:#000000"/>
		</linearGradient>
		<rect x="343.279" y="127.493" fill="url(#SVGID_2_)" width="13.924" height="2.322"/>
		<linearGradient id="SVGID_3_" gradientUnits="userSpaceOnUse" x1="341.48" y1="123.4072" x2="341.48" y2="133.5029">
			<stop  offset="0" style="stop-color:#111111"/>
			<stop  offset="0.1636" style="stop-color:#D9DADC"/>
			<stop  offset="0.3047" style="stop-color:#FFFFFF"/>
			<stop  offset="0.4118" style="stop-color:#A5A7A9"/>
			<stop  offset="0.8331" style="stop-color:#000000"/>
			<stop  offset="0.855" style="stop-color:#000000"/>
			<stop  offset="0.9469" style="stop-color:#000000"/>
		</linearGradient>
		<rect x="339.74" y="123.315" fill="url(#SVGID_3_)" width="3.48" height="10.096"/>
		<linearGradient id="SVGID_4_" gradientUnits="userSpaceOnUse" x1="314.0972" y1="123.4072" x2="314.0972" y2="133.5029">
			<stop  offset="0" style="stop-color:#111111"/>
			<stop  offset="0.1636" style="stop-color:#D9DADC"/>
			<stop  offset="0.3047" style="stop-color:#FFFFFF"/>
			<stop  offset="0.4118" style="stop-color:#A5A7A9"/>
			<stop  offset="0.8331" style="stop-color:#000000"/>
			<stop  offset="0.855" style="stop-color:#000000"/>
			<stop  offset="0.9469" style="stop-color:#000000"/>
		</linearGradient>
		<rect x="312.357" y="123.315" fill="url(#SVGID_4_)" width="3.48" height="10.096"/>
		<linearGradient id="SVGID_5_" gradientUnits="userSpaceOnUse" x1="328.3101" y1="125.1172" x2="328.3101" y2="131.8477">
			<stop  offset="0" style="stop-color:#111111"/>
			<stop  offset="0.4989" style="stop-color:#565759"/>
			<stop  offset="0.6407" style="stop-color:#525355"/>
			<stop  offset="0.7876" style="stop-color:#474749"/>
			<stop  offset="0.9364" style="stop-color:#252526"/>
			<stop  offset="1" style="stop-color:#000000"/>
		</linearGradient>
		<rect x="314.619" y="125.056" fill="url(#SVGID_5_)" width="27.383" height="6.73"/>
		<linearGradient id="SVGID_6_" gradientUnits="userSpaceOnUse" x1="340.0005" y1="124.2617" x2="340.0005" y2="132.5566">
			<stop  offset="0" style="stop-color:#636466"/>
			<stop  offset="0.1636" style="stop-color:#D9DADC"/>
			<stop  offset="0.5606" style="stop-color:#A5A7A9"/>
			<stop  offset="0.8409" style="stop-color:#565759"/>
			<stop  offset="1" style="stop-color:#2E2E2F"/>
		</linearGradient>
		<polygon fill="url(#SVGID_6_)" points="342.001,132.481 339.333,132.481 338,124.187 342.001,124.187 		"/>
		<linearGradient id="SVGID_7_" gradientUnits="userSpaceOnUse" x1="336.5776" y1="124.2617" x2="336.5776" y2="132.5566">
			<stop  offset="0" style="stop-color:#636466"/>
			<stop  offset="0.1636" style="stop-color:#D9DADC"/>
			<stop  offset="0.5606" style="stop-color:#A5A7A9"/>
			<stop  offset="0.8409" style="stop-color:#565759"/>
			<stop  offset="1" style="stop-color:#2E2E2F"/>
		</linearGradient>
		<polygon fill="url(#SVGID_7_)" points="338.58,132.481 335.912,132.481 334.576,124.187 337.246,124.187 		"/>
		<linearGradient id="SVGID_8_" gradientUnits="userSpaceOnUse" x1="333.1548" y1="124.2617" x2="333.1548" y2="132.5566">
			<stop  offset="0" style="stop-color:#636466"/>
			<stop  offset="0.1636" style="stop-color:#D9DADC"/>
			<stop  offset="0.5606" style="stop-color:#A5A7A9"/>
			<stop  offset="0.8409" style="stop-color:#565759"/>
			<stop  offset="1" style="stop-color:#2E2E2F"/>
		</linearGradient>
		<polygon fill="url(#SVGID_8_)" points="335.156,132.481 332.488,132.481 331.154,124.187 333.822,124.187 		"/>
		<linearGradient id="SVGID_9_" gradientUnits="userSpaceOnUse" x1="329.7329" y1="124.2617" x2="329.7329" y2="132.5566">
			<stop  offset="0" style="stop-color:#636466"/>
			<stop  offset="0.1636" style="stop-color:#D9DADC"/>
			<stop  offset="0.5606" style="stop-color:#A5A7A9"/>
			<stop  offset="0.8409" style="stop-color:#565759"/>
			<stop  offset="1" style="stop-color:#2E2E2F"/>
		</linearGradient>
		<polygon fill="url(#SVGID_9_)" points="331.734,132.481 329.066,132.481 327.732,124.187 330.4,124.187 		"/>
		<linearGradient id="SVGID_10_" gradientUnits="userSpaceOnUse" x1="326.3091" y1="124.2617" x2="326.3091" y2="132.5566">
			<stop  offset="0" style="stop-color:#636466"/>
			<stop  offset="0.1636" style="stop-color:#D9DADC"/>
			<stop  offset="0.5606" style="stop-color:#A5A7A9"/>
			<stop  offset="0.8409" style="stop-color:#565759"/>
			<stop  offset="1" style="stop-color:#2E2E2F"/>
		</linearGradient>
		<polygon fill="url(#SVGID_10_)" points="328.31,132.481 325.642,132.481 324.308,124.187 326.976,124.187 		"/>
		<linearGradient id="SVGID_11_" gradientUnits="userSpaceOnUse" x1="322.8862" y1="124.2617" x2="322.8862" y2="132.5566">
			<stop  offset="0" style="stop-color:#636466"/>
			<stop  offset="0.1636" style="stop-color:#D9DADC"/>
			<stop  offset="0.5606" style="stop-color:#A5A7A9"/>
			<stop  offset="0.8409" style="stop-color:#565759"/>
			<stop  offset="1" style="stop-color:#2E2E2F"/>
		</linearGradient>
		<polygon fill="url(#SVGID_11_)" points="324.888,132.481 322.22,132.481 320.884,124.187 323.554,124.187 		"/>
		<linearGradient id="SVGID_12_" gradientUnits="userSpaceOnUse" x1="319.4644" y1="124.2617" x2="319.4644" y2="132.5566">
			<stop  offset="0" style="stop-color:#636466"/>
			<stop  offset="0.1636" style="stop-color:#D9DADC"/>
			<stop  offset="0.5606" style="stop-color:#A5A7A9"/>
			<stop  offset="0.8409" style="stop-color:#565759"/>
			<stop  offset="1" style="stop-color:#2E2E2F"/>
		</linearGradient>
		<polygon fill="url(#SVGID_12_)" points="321.466,132.481 318.796,132.481 317.462,124.187 320.13,124.187 		"/>
		<linearGradient id="SVGID_13_" gradientUnits="userSpaceOnUse" x1="316.0405" y1="124.2617" x2="316.0405" y2="132.5566">
			<stop  offset="0" style="stop-color:#636466"/>
			<stop  offset="0.1636" style="stop-color:#D9DADC"/>
			<stop  offset="0.5606" style="stop-color:#A5A7A9"/>
			<stop  offset="0.8409" style="stop-color:#565759"/>
			<stop  offset="1" style="stop-color:#2E2E2F"/>
		</linearGradient>
		<polygon fill="url(#SVGID_13_)" points="318.042,132.481 314.097,132.481 314.039,124.187 316.708,124.187 		"/>
		<path fill="#3B7BB7" d="M350.472,128.653v-1.16c0,0-0.58-0.232-1.219-0.232c-0.637,0-2.436-0.291-2.727-0.58
			c-0.289-0.291-0.174-1.508-1.275-2.785c-1.104-1.275-3.539-1.16-4.816-1.172c-1.275-0.012-4.525,0.998-5.279,0.998
			s-15.025-0.059-15.691-0.059s-2.352-0.869-3.424-0.928s-3.395,0.059-5.076,1.16c-1.684,1.104-1.16,2.611-1.451,2.9
			c-0.289,0.291-3.598,0.117-4.234,0.406c-0.639,0.289,0.057,0.58,0,0.871v1.162c0.057,0.289-0.639,0.58,0,0.869
			c0.637,0.291,3.945,0.117,4.234,0.406c0.291,0.291-0.232,1.799,1.451,2.9c1.682,1.104,4.004,1.219,5.076,1.16
			c1.072-0.057,2.758-0.928,3.424-0.928s14.938-0.057,15.691-0.057s4.004,1.01,5.279,0.998c1.277-0.014,3.713,0.104,4.816-1.174
			c1.102-1.275,0.986-2.494,1.275-2.783c0.291-0.291,2.09-0.58,2.727-0.58c0.639,0,1.219-0.232,1.219-0.232V128.653z"/>
		<linearGradient id="SVGID_14_" gradientUnits="userSpaceOnUse" x1="327.7397" y1="123.9814" x2="327.7397" y2="133.4494">
			<stop  offset="0" style="stop-color:#636466"/>
			<stop  offset="0.1636" style="stop-color:#D9DADC"/>
			<stop  offset="0.5606" style="stop-color:#A5A7A9"/>
			<stop  offset="0.8409" style="stop-color:#565759"/>
			<stop  offset="1" style="stop-color:#2E2E2F"/>
		</linearGradient>
		<path opacity="0.7" fill="url(#SVGID_14_)" d="M350.472,128.653v-1.16c0,0-0.58-0.232-1.219-0.232
			c-0.637,0-2.436-0.291-2.727-0.58c-0.289-0.291-0.174-1.508-1.275-2.785c-1.104-1.275-3.539-1.16-4.816-1.172
			c-1.275-0.012-4.525,0.998-5.279,0.998s-15.025-0.059-15.691-0.059s-2.352-0.869-3.424-0.928s-3.395,0.059-5.076,1.16
			c-1.684,1.104-1.16,2.611-1.451,2.9c-0.289,0.291-3.598,0.117-4.234,0.406c-0.639,0.289,0.057,0.58,0,0.871v1.162
			c0.057,0.289-0.639,0.58,0,0.869c0.637,0.291,3.945,0.117,4.234,0.406c0.291,0.291-0.232,1.799,1.451,2.9
			c1.682,1.104,4.004,1.219,5.076,1.16c1.072-0.057,2.758-0.928,3.424-0.928s14.938-0.057,15.691-0.057s4.004,1.01,5.279,0.998
			c1.277-0.014,3.713,0.104,4.816-1.174c1.102-1.275,0.986-2.494,1.275-2.783c0.291-0.291,2.09-0.58,2.727-0.58
			c0.639,0,1.219-0.232,1.219-0.232V128.653z"/>
		<g>
			<defs>
				<path id="SVGID_15_" d="M350.472,128.653v-1.16c0,0-0.58-0.232-1.219-0.232c-0.637,0-2.436-0.291-2.727-0.58
					c-0.289-0.291-0.174-1.508-1.275-2.785c-1.104-1.275-3.539-1.16-4.816-1.172c-1.275-0.012-4.525,0.998-5.279,0.998
					s-15.025-0.059-15.691-0.059s-2.352-0.869-3.424-0.928s-3.395,0.059-5.076,1.16c-1.684,1.104-1.16,2.611-1.451,2.9
					c-0.289,0.291-3.598,0.117-4.234,0.406c-0.639,0.289,0.057,0.58,0,0.871v1.162c0.057,0.289-0.639,0.58,0,0.869
					c0.637,0.291,3.945,0.117,4.234,0.406c0.291,0.291-0.232,1.799,1.451,2.9c1.682,1.104,4.004,1.219,5.076,1.16
					c1.072-0.057,2.758-0.928,3.424-0.928s14.938-0.057,15.691-0.057s4.004,1.01,5.279,0.998c1.277-0.014,3.713,0.104,4.816-1.174
					c1.102-1.275,0.986-2.494,1.275-2.783c0.291-0.291,2.09-0.58,2.727-0.58c0.639,0,1.219-0.232,1.219-0.232V128.653z"/>
			</defs>
			<clipPath id="SVGID_16_">
				<use xlink:href="#SVGID_15_"  overflow="visible"/>
			</clipPath>
			<g clip-path="url(#SVGID_16_)">
				<rect x="314.097" y="121.573" fill="#3F3326" width="3.139" height="13.645"/>
				<rect x="320.158" y="121.573" fill="#C4202B" width="3.139" height="13.645"/>
				<rect x="326.218" y="121.573" fill="#275028" width="3.141" height="13.645"/>
				<rect x="332.279" y="121.573" fill="#62BC58" width="3.141" height="13.645"/>
				<rect x="338.339" y="121.573" fill="#EBB97D" width="3.141" height="13.645"/>
				<linearGradient id="SVGID_17_" gradientUnits="userSpaceOnUse" x1="315.6665" y1="122.3564" x2="315.6665" y2="134.9656">
					<stop  offset="0" style="stop-color:#111111"/>
					<stop  offset="0.1636" style="stop-color:#D9DADC"/>
					<stop  offset="0.3047" style="stop-color:#FFFFFF"/>
					<stop  offset="0.4118" style="stop-color:#A5A7A9"/>
					<stop  offset="0.8331" style="stop-color:#000000"/>
					<stop  offset="0.855" style="stop-color:#000000"/>
					<stop  offset="0.9469" style="stop-color:#000000"/>
				</linearGradient>
				<rect x="314.097" y="121.573" opacity="0.4" fill="url(#SVGID_17_)" width="3.139" height="13.645"/>
				<linearGradient id="SVGID_18_" gradientUnits="userSpaceOnUse" x1="321.7271" y1="122.3564" x2="321.7271" y2="134.9656">
					<stop  offset="0" style="stop-color:#111111"/>
					<stop  offset="0.1636" style="stop-color:#D9DADC"/>
					<stop  offset="0.3047" style="stop-color:#FFFFFF"/>
					<stop  offset="0.4118" style="stop-color:#A5A7A9"/>
					<stop  offset="0.8331" style="stop-color:#000000"/>
					<stop  offset="0.855" style="stop-color:#000000"/>
					<stop  offset="0.9469" style="stop-color:#000000"/>
				</linearGradient>
				<rect x="320.158" y="121.573" opacity="0.4" fill="url(#SVGID_18_)" width="3.139" height="13.645"/>
				<linearGradient id="SVGID_19_" gradientUnits="userSpaceOnUse" x1="327.7886" y1="122.3564" x2="327.7886" y2="134.9656">
					<stop  offset="0" style="stop-color:#111111"/>
					<stop  offset="0.1636" style="stop-color:#D9DADC"/>
					<stop  offset="0.3047" style="stop-color:#FFFFFF"/>
					<stop  offset="0.4118" style="stop-color:#A5A7A9"/>
					<stop  offset="0.8331" style="stop-color:#000000"/>
					<stop  offset="0.855" style="stop-color:#000000"/>
					<stop  offset="0.9469" style="stop-color:#000000"/>
				</linearGradient>
				<rect x="326.218" y="121.573" opacity="0.4" fill="url(#SVGID_19_)" width="3.141" height="13.645"/>
				<linearGradient id="SVGID_20_" gradientUnits="userSpaceOnUse" x1="333.8491" y1="122.3564" x2="333.8491" y2="134.9656">
					<stop  offset="0" style="stop-color:#111111"/>
					<stop  offset="0.1636" style="stop-color:#D9DADC"/>
					<stop  offset="0.3047" style="stop-color:#FFFFFF"/>
					<stop  offset="0.4118" style="stop-color:#A5A7A9"/>
					<stop  offset="0.8331" style="stop-color:#000000"/>
					<stop  offset="0.855" style="stop-color:#000000"/>
					<stop  offset="0.9469" style="stop-color:#000000"/>
				</linearGradient>
				<rect x="332.279" y="121.573" opacity="0.4" fill="url(#SVGID_20_)" width="3.141" height="13.645"/>
				<linearGradient id="SVGID_21_" gradientUnits="userSpaceOnUse" x1="339.8833" y1="122.3564" x2="339.8833" y2="134.9656">
					<stop  offset="0" style="stop-color:#111111"/>
					<stop  offset="0.1636" style="stop-color:#D9DADC"/>
					<stop  offset="0.3047" style="stop-color:#FFFFFF"/>
					<stop  offset="0.4118" style="stop-color:#A5A7A9"/>
					<stop  offset="0.8331" style="stop-color:#000000"/>
					<stop  offset="0.855" style="stop-color:#000000"/>
					<stop  offset="0.9469" style="stop-color:#000000"/>
				</linearGradient>
				<rect x="338.314" y="121.573" opacity="0.4" fill="url(#SVGID_21_)" width="3.139" height="13.645"/>
			</g>
		</g>
	</g>
	<g>
		
			<linearGradient id="SVGID_22_" gradientUnits="userSpaceOnUse" x1="1094.3403" y1="124.2627" x2="1094.3403" y2="132.5596" gradientTransform="matrix(-1 0 0 1 1411.8389 0)">
			<stop  offset="0" style="stop-color:#636466"/>
			<stop  offset="0.1636" style="stop-color:#D9DADC"/>
			<stop  offset="0.5606" style="stop-color:#A5A7A9"/>
			<stop  offset="0.8409" style="stop-color:#565759"/>
			<stop  offset="1" style="stop-color:#2E2E2F"/>
		</linearGradient>
		<polygon opacity="0.7" fill="url(#SVGID_22_)" points="316.214,132.485 317.927,132.485 318.783,124.188 317.072,124.188 		"/>
		
			<linearGradient id="SVGID_23_" gradientUnits="userSpaceOnUse" x1="1096.5747" y1="124.2627" x2="1096.5747" y2="132.5596" gradientTransform="matrix(-1 0 0 1 1411.8389 0)">
			<stop  offset="0" style="stop-color:#636466"/>
			<stop  offset="0.1636" style="stop-color:#D9DADC"/>
			<stop  offset="0.5606" style="stop-color:#A5A7A9"/>
			<stop  offset="0.8409" style="stop-color:#565759"/>
			<stop  offset="1" style="stop-color:#2E2E2F"/>
		</linearGradient>
		<polygon opacity="0.7" fill="url(#SVGID_23_)" points="313.98,132.485 315.693,132.485 316.548,124.188 314.837,124.188 		"/>
		
			<linearGradient id="SVGID_24_" gradientUnits="userSpaceOnUse" x1="1092.1431" y1="124.2627" x2="1092.1431" y2="132.5596" gradientTransform="matrix(-1 0 0 1 1411.8389 0)">
			<stop  offset="0" style="stop-color:#636466"/>
			<stop  offset="0.1636" style="stop-color:#D9DADC"/>
			<stop  offset="0.5606" style="stop-color:#A5A7A9"/>
			<stop  offset="0.8409" style="stop-color:#565759"/>
			<stop  offset="1" style="stop-color:#2E2E2F"/>
		</linearGradient>
		<polygon opacity="0.7" fill="url(#SVGID_24_)" points="318.412,132.485 320.125,132.485 320.98,124.188 319.267,124.188 		"/>
		
			<linearGradient id="SVGID_25_" gradientUnits="userSpaceOnUse" x1="1089.9468" y1="124.2627" x2="1089.9468" y2="132.5596" gradientTransform="matrix(-1 0 0 1 1411.8389 0)">
			<stop  offset="0" style="stop-color:#636466"/>
			<stop  offset="0.1636" style="stop-color:#D9DADC"/>
			<stop  offset="0.5606" style="stop-color:#A5A7A9"/>
			<stop  offset="0.8409" style="stop-color:#565759"/>
			<stop  offset="1" style="stop-color:#2E2E2F"/>
		</linearGradient>
		<polygon opacity="0.7" fill="url(#SVGID_25_)" points="320.607,132.485 322.32,132.485 323.177,124.188 321.464,124.188 		"/>
		
			<linearGradient id="SVGID_26_" gradientUnits="userSpaceOnUse" x1="1087.7505" y1="124.2627" x2="1087.7505" y2="132.5596" gradientTransform="matrix(-1 0 0 1 1411.8389 0)">
			<stop  offset="0" style="stop-color:#636466"/>
			<stop  offset="0.1636" style="stop-color:#D9DADC"/>
			<stop  offset="0.5606" style="stop-color:#A5A7A9"/>
			<stop  offset="0.8409" style="stop-color:#565759"/>
			<stop  offset="1" style="stop-color:#2E2E2F"/>
		</linearGradient>
		<polygon opacity="0.7" fill="url(#SVGID_26_)" points="322.804,132.485 324.517,132.485 325.373,124.188 323.66,124.188 		"/>
		
			<linearGradient id="SVGID_27_" gradientUnits="userSpaceOnUse" x1="1085.5532" y1="124.2627" x2="1085.5532" y2="132.5596" gradientTransform="matrix(-1 0 0 1 1411.8389 0)">
			<stop  offset="0" style="stop-color:#636466"/>
			<stop  offset="0.1636" style="stop-color:#D9DADC"/>
			<stop  offset="0.5606" style="stop-color:#A5A7A9"/>
			<stop  offset="0.8409" style="stop-color:#565759"/>
			<stop  offset="1" style="stop-color:#2E2E2F"/>
		</linearGradient>
		<polygon opacity="0.7" fill="url(#SVGID_27_)" points="325.001,132.485 326.714,132.485 327.57,124.188 325.857,124.188 		"/>
		
			<linearGradient id="SVGID_28_" gradientUnits="userSpaceOnUse" x1="1083.3569" y1="124.2627" x2="1083.3569" y2="132.5596" gradientTransform="matrix(-1 0 0 1 1411.8389 0)">
			<stop  offset="0" style="stop-color:#636466"/>
			<stop  offset="0.1636" style="stop-color:#D9DADC"/>
			<stop  offset="0.5606" style="stop-color:#A5A7A9"/>
			<stop  offset="0.8409" style="stop-color:#565759"/>
			<stop  offset="1" style="stop-color:#2E2E2F"/>
		</linearGradient>
		<polygon opacity="0.7" fill="url(#SVGID_28_)" points="327.197,132.485 328.91,132.485 329.767,124.188 328.054,124.188 		"/>
		<linearGradient id="SVGID_29_" gradientUnits="userSpaceOnUse" x1="305.395" y1="127.5186" x2="305.395" y2="129.8389">
			<stop  offset="0" style="stop-color:#111111"/>
			<stop  offset="0.1636" style="stop-color:#D9DADC"/>
			<stop  offset="0.3047" style="stop-color:#FFFFFF"/>
			<stop  offset="0.4118" style="stop-color:#A5A7A9"/>
			<stop  offset="0.8331" style="stop-color:#000000"/>
			<stop  offset="0.855" style="stop-color:#000000"/>
			<stop  offset="0.9469" style="stop-color:#000000"/>
		</linearGradient>
		<rect x="298.433" y="127.497" fill="url(#SVGID_29_)" width="13.924" height="2.32"/>
		<linearGradient id="SVGID_30_" gradientUnits="userSpaceOnUse" x1="350.2407" y1="127.5186" x2="350.2407" y2="129.8389">
			<stop  offset="0" style="stop-color:#111111"/>
			<stop  offset="0.1636" style="stop-color:#D9DADC"/>
			<stop  offset="0.3047" style="stop-color:#FFFFFF"/>
			<stop  offset="0.4118" style="stop-color:#A5A7A9"/>
			<stop  offset="0.8331" style="stop-color:#000000"/>
			<stop  offset="0.855" style="stop-color:#000000"/>
			<stop  offset="0.9469" style="stop-color:#000000"/>
		</linearGradient>
		<rect x="343.279" y="127.497" fill="url(#SVGID_30_)" width="13.924" height="2.32"/>
		<linearGradient id="SVGID_31_" gradientUnits="userSpaceOnUse" x1="341.48" y1="123.4111" x2="341.48" y2="133.5049">
			<stop  offset="0" style="stop-color:#111111"/>
			<stop  offset="0.1636" style="stop-color:#D9DADC"/>
			<stop  offset="0.3047" style="stop-color:#FFFFFF"/>
			<stop  offset="0.4118" style="stop-color:#A5A7A9"/>
			<stop  offset="0.8331" style="stop-color:#000000"/>
			<stop  offset="0.855" style="stop-color:#000000"/>
			<stop  offset="0.9469" style="stop-color:#000000"/>
		</linearGradient>
		<rect x="339.74" y="123.319" fill="url(#SVGID_31_)" width="3.48" height="10.094"/>
		<linearGradient id="SVGID_32_" gradientUnits="userSpaceOnUse" x1="314.0972" y1="123.4111" x2="314.0972" y2="133.5049">
			<stop  offset="0" style="stop-color:#111111"/>
			<stop  offset="0.1636" style="stop-color:#D9DADC"/>
			<stop  offset="0.3047" style="stop-color:#FFFFFF"/>
			<stop  offset="0.4118" style="stop-color:#A5A7A9"/>
			<stop  offset="0.8331" style="stop-color:#000000"/>
			<stop  offset="0.855" style="stop-color:#000000"/>
			<stop  offset="0.9469" style="stop-color:#000000"/>
		</linearGradient>
		<rect x="312.357" y="123.319" fill="url(#SVGID_32_)" width="3.48" height="10.094"/>
		<linearGradient id="SVGID_33_" gradientUnits="userSpaceOnUse" x1="327.6626" y1="125.1211" x2="327.6626" y2="131.8496">
			<stop  offset="0" style="stop-color:#111111"/>
			<stop  offset="0.4989" style="stop-color:#565759"/>
			<stop  offset="0.6407" style="stop-color:#525355"/>
			<stop  offset="0.7876" style="stop-color:#474749"/>
			<stop  offset="0.9364" style="stop-color:#252526"/>
			<stop  offset="1" style="stop-color:#000000"/>
		</linearGradient>
		<rect x="314.39" y="125.06" fill="url(#SVGID_33_)" width="26.545" height="6.729"/>
		<linearGradient id="SVGID_34_" gradientUnits="userSpaceOnUse" x1="340.0005" y1="124.2637" x2="340.0005" y2="132.5605">
			<stop  offset="0" style="stop-color:#636466"/>
			<stop  offset="0.1636" style="stop-color:#D9DADC"/>
			<stop  offset="0.5606" style="stop-color:#A5A7A9"/>
			<stop  offset="0.8409" style="stop-color:#565759"/>
			<stop  offset="1" style="stop-color:#2E2E2F"/>
		</linearGradient>
		<polygon fill="url(#SVGID_34_)" points="342.001,132.485 338.937,132.485 338,124.188 342.001,124.188 		"/>
		<linearGradient id="SVGID_35_" gradientUnits="userSpaceOnUse" x1="328.4829" y1="124.2637" x2="328.4829" y2="132.5605">
			<stop  offset="0" style="stop-color:#636466"/>
			<stop  offset="0.1636" style="stop-color:#D9DADC"/>
			<stop  offset="0.5606" style="stop-color:#A5A7A9"/>
			<stop  offset="0.8409" style="stop-color:#565759"/>
			<stop  offset="1" style="stop-color:#2E2E2F"/>
		</linearGradient>
		<polygon fill="url(#SVGID_35_)" points="329.767,132.485 328.054,132.485 327.199,124.188 328.91,124.188 		"/>
		<linearGradient id="SVGID_36_" gradientUnits="userSpaceOnUse" x1="326.2856" y1="124.2637" x2="326.2856" y2="132.5605">
			<stop  offset="0" style="stop-color:#636466"/>
			<stop  offset="0.1636" style="stop-color:#D9DADC"/>
			<stop  offset="0.5606" style="stop-color:#A5A7A9"/>
			<stop  offset="0.8409" style="stop-color:#565759"/>
			<stop  offset="1" style="stop-color:#2E2E2F"/>
		</linearGradient>
		<polygon fill="url(#SVGID_36_)" points="327.57,132.485 325.857,132.485 325.001,124.188 326.714,124.188 		"/>
		<linearGradient id="SVGID_37_" gradientUnits="userSpaceOnUse" x1="324.0884" y1="124.2637" x2="324.0884" y2="132.5605">
			<stop  offset="0" style="stop-color:#636466"/>
			<stop  offset="0.1636" style="stop-color:#D9DADC"/>
			<stop  offset="0.5606" style="stop-color:#A5A7A9"/>
			<stop  offset="0.8409" style="stop-color:#565759"/>
			<stop  offset="1" style="stop-color:#2E2E2F"/>
		</linearGradient>
		<polygon fill="url(#SVGID_37_)" points="325.373,132.485 323.662,132.485 322.804,124.188 324.517,124.188 		"/>
		<linearGradient id="SVGID_38_" gradientUnits="userSpaceOnUse" x1="321.8931" y1="124.2637" x2="321.8931" y2="132.5605">
			<stop  offset="0" style="stop-color:#636466"/>
			<stop  offset="0.1636" style="stop-color:#D9DADC"/>
			<stop  offset="0.5606" style="stop-color:#A5A7A9"/>
			<stop  offset="0.8409" style="stop-color:#565759"/>
			<stop  offset="1" style="stop-color:#2E2E2F"/>
		</linearGradient>
		<polygon fill="url(#SVGID_38_)" points="323.177,132.485 321.464,132.485 320.609,124.188 322.32,124.188 		"/>
		<linearGradient id="SVGID_39_" gradientUnits="userSpaceOnUse" x1="319.6958" y1="124.2637" x2="319.6958" y2="132.5605">
			<stop  offset="0" style="stop-color:#636466"/>
			<stop  offset="0.1636" style="stop-color:#D9DADC"/>
			<stop  offset="0.5606" style="stop-color:#A5A7A9"/>
			<stop  offset="0.8409" style="stop-color:#565759"/>
			<stop  offset="1" style="stop-color:#2E2E2F"/>
		</linearGradient>
		<polygon fill="url(#SVGID_39_)" points="320.98,132.485 319.267,132.485 318.412,124.188 320.125,124.188 		"/>
		<linearGradient id="SVGID_40_" gradientUnits="userSpaceOnUse" x1="317.4995" y1="124.2637" x2="317.4995" y2="132.5605">
			<stop  offset="0" style="stop-color:#636466"/>
			<stop  offset="0.1636" style="stop-color:#D9DADC"/>
			<stop  offset="0.5606" style="stop-color:#A5A7A9"/>
			<stop  offset="0.8409" style="stop-color:#565759"/>
			<stop  offset="1" style="stop-color:#2E2E2F"/>
		</linearGradient>
		<polygon fill="url(#SVGID_40_)" points="318.785,132.485 317.072,132.485 316.214,124.188 317.927,124.188 		"/>
		<linearGradient id="SVGID_41_" gradientUnits="userSpaceOnUse" x1="315.3032" y1="124.2637" x2="315.3032" y2="132.5605">
			<stop  offset="0" style="stop-color:#636466"/>
			<stop  offset="0.1636" style="stop-color:#D9DADC"/>
			<stop  offset="0.5606" style="stop-color:#A5A7A9"/>
			<stop  offset="0.8409" style="stop-color:#565759"/>
			<stop  offset="1" style="stop-color:#2E2E2F"/>
		</linearGradient>
		<polygon fill="url(#SVGID_41_)" points="316.587,132.485 314.056,132.485 314.019,124.188 315.732,124.188 		"/>
		<g>
			<g>
				<polyline fill="none" stroke="#E5E523" stroke-width="0.174" stroke-linecap="round" stroke-linejoin="round" points="
					295.212,128.657 314.685,128.657 315.24,131.894 				"/>
				<g>
					<polygon fill="#E5E523" points="314.97,131.862 315.302,132.263 315.484,131.774 					"/>
				</g>
			</g>
		</g>
		<g>
			<g>
				
					<line fill="none" stroke="#E5E523" stroke-width="0.1394" stroke-linecap="round" stroke-linejoin="round" x1="317.042" y1="124.188" x2="317.994" y2="131.964"/>
				<g>
					<polygon fill="#E5E523" points="317.779,131.929 318.031,132.263 318.193,131.878 					"/>
				</g>
			</g>
		</g>
		<g opacity="0.4">
			<g>
				
					<line fill="none" stroke="#E5E523" stroke-width="0.1394" stroke-linecap="round" stroke-linejoin="round" x1="315.38" y1="132.089" x2="316.839" y2="124.438"/>
				<g>
					<polygon fill="#E5E523" points="317.033,124.538 316.896,124.144 316.623,124.46 					"/>
				</g>
			</g>
		</g>
		<g>
			<g>
				
					<line fill="none" stroke="#E5E523" stroke-width="0.1394" stroke-linecap="round" stroke-linejoin="round" x1="319.136" y1="124.188" x2="320.087" y2="131.964"/>
				<g>
					<polygon fill="#E5E523" points="319.873,131.929 320.125,132.263 320.287,131.878 					"/>
				</g>
			</g>
		</g>
		<g opacity="0.4">
			<g>
				
					<line fill="none" stroke="#E5E523" stroke-width="0.1394" stroke-linecap="round" stroke-linejoin="round" x1="318.031" y1="132.089" x2="318.953" y2="124.442"/>
				<g>
					<polygon fill="#E5E523" points="319.152,124.528 318.99,124.144 318.738,124.478 					"/>
				</g>
			</g>
		</g>
		<g>
			<g>
				
					<line fill="none" stroke="#E5E523" stroke-width="0.1394" stroke-linecap="round" stroke-linejoin="round" x1="321.371" y1="124.188" x2="322.32" y2="131.964"/>
				<g>
					<polygon fill="#E5E523" points="322.107,131.929 322.357,132.263 322.521,131.878 					"/>
				</g>
			</g>
		</g>
		<g opacity="0.4">
			<g>
				
					<line fill="none" stroke="#E5E523" stroke-width="0.1394" stroke-linecap="round" stroke-linejoin="round" x1="320.125" y1="132.089" x2="321.181" y2="124.44"/>
				<g>
					<polygon fill="#E5E523" points="321.38,124.53 321.222,124.144 320.966,124.474 					"/>
				</g>
			</g>
		</g>
		<g>
			<g>
				
					<line fill="none" stroke="#E5E523" stroke-width="0.1394" stroke-linecap="round" stroke-linejoin="round" x1="323.519" y1="124.188" x2="324.47" y2="131.964"/>
				<g>
					<polygon fill="#E5E523" points="324.255,131.929 324.505,132.263 324.669,131.878 					"/>
				</g>
			</g>
		</g>
		<g opacity="0.4">
			<g>
				
					<line fill="none" stroke="#E5E523" stroke-width="0.1394" stroke-linecap="round" stroke-linejoin="round" x1="322.414" y1="132.089" x2="323.335" y2="124.442"/>
				<g>
					<polygon fill="#E5E523" points="323.535,124.528 323.373,124.144 323.121,124.478 					"/>
				</g>
			</g>
		</g>
		<g>
			<g>
				
					<line fill="none" stroke="#E5E523" stroke-width="0.1394" stroke-linecap="round" stroke-linejoin="round" x1="325.667" y1="124.188" x2="326.619" y2="131.964"/>
				<g>
					<polygon fill="#E5E523" points="326.404,131.929 326.656,132.263 326.818,131.878 					"/>
				</g>
			</g>
		</g>
		<g opacity="0.4">
			<g>
				
					<line fill="none" stroke="#E5E523" stroke-width="0.1394" stroke-linecap="round" stroke-linejoin="round" x1="324.562" y1="132.089" x2="325.486" y2="124.442"/>
				<g>
					<polygon fill="#E5E523" points="325.685,124.528 325.521,124.144 325.271,124.478 					"/>
				</g>
			</g>
		</g>
		<g>
			<path fill="none" d="M328.804,132.263"/>
		</g>
		<g>
			<path fill="none" d="M327.818,124.188"/>
		</g>
		<g opacity="0.4">
			<path fill="none" d="M327.669,124.144"/>
		</g>
		<g opacity="0.4">
			<path fill="none" d="M326.71,132.089"/>
		</g>
		<g>
			<g>
				<polyline fill="none" stroke="#E5E523" stroke-width="0.174" stroke-linecap="round" stroke-linejoin="round" points="
					338.73,124.188 339.789,128.657 350.097,128.657 				"/>
				<g>
					<polygon fill="#E5E523" points="350.021,128.917 350.472,128.657 350.021,128.396 					"/>
				</g>
			</g>
		</g>
		<g opacity="0.4">
			<g>
				
					<line fill="none" stroke="#E5E523" stroke-width="0.1394" stroke-linecap="round" stroke-linejoin="round" x1="328.89" y1="132.089" x2="329.814" y2="124.442"/>
				<g>
					<polygon fill="#E5E523" points="330.013,124.528 329.849,124.144 329.599,124.478 					"/>
				</g>
			</g>
		</g>
		
			<linearGradient id="SVGID_42_" gradientUnits="userSpaceOnUse" x1="1083.3833" y1="124.2627" x2="1083.3833" y2="132.5596" gradientTransform="matrix(-1 0 0 1 1411.8389 0)">
			<stop  offset="0" style="stop-color:#636466"/>
			<stop  offset="0.1636" style="stop-color:#D9DADC"/>
			<stop  offset="0.5606" style="stop-color:#A5A7A9"/>
			<stop  offset="0.8409" style="stop-color:#565759"/>
			<stop  offset="1" style="stop-color:#2E2E2F"/>
		</linearGradient>
		<polygon opacity="0.7" fill="url(#SVGID_42_)" points="327.171,132.485 328.884,132.485 329.74,124.188 328.027,124.188 		"/>
		
			<linearGradient id="SVGID_43_" gradientUnits="userSpaceOnUse" x1="1081.186" y1="124.2627" x2="1081.186" y2="132.5596" gradientTransform="matrix(-1 0 0 1 1411.8389 0)">
			<stop  offset="0" style="stop-color:#636466"/>
			<stop  offset="0.1636" style="stop-color:#D9DADC"/>
			<stop  offset="0.5606" style="stop-color:#A5A7A9"/>
			<stop  offset="0.8409" style="stop-color:#565759"/>
			<stop  offset="1" style="stop-color:#2E2E2F"/>
		</linearGradient>
		<polygon opacity="0.7" fill="url(#SVGID_43_)" points="329.369,132.485 331.08,132.485 331.937,124.188 330.224,124.188 		"/>
		
			<linearGradient id="SVGID_44_" gradientUnits="userSpaceOnUse" x1="1078.9907" y1="124.2627" x2="1078.9907" y2="132.5596" gradientTransform="matrix(-1 0 0 1 1411.8389 0)">
			<stop  offset="0" style="stop-color:#636466"/>
			<stop  offset="0.1636" style="stop-color:#D9DADC"/>
			<stop  offset="0.5606" style="stop-color:#A5A7A9"/>
			<stop  offset="0.8409" style="stop-color:#565759"/>
			<stop  offset="1" style="stop-color:#2E2E2F"/>
		</linearGradient>
		<polygon opacity="0.7" fill="url(#SVGID_44_)" points="331.564,132.485 333.277,132.485 334.132,124.188 332.421,124.188 		"/>
		
			<linearGradient id="SVGID_45_" gradientUnits="userSpaceOnUse" x1="1076.7935" y1="124.2627" x2="1076.7935" y2="132.5596" gradientTransform="matrix(-1 0 0 1 1411.8389 0)">
			<stop  offset="0" style="stop-color:#636466"/>
			<stop  offset="0.1636" style="stop-color:#D9DADC"/>
			<stop  offset="0.5606" style="stop-color:#A5A7A9"/>
			<stop  offset="0.8409" style="stop-color:#565759"/>
			<stop  offset="1" style="stop-color:#2E2E2F"/>
		</linearGradient>
		<polygon opacity="0.7" fill="url(#SVGID_45_)" points="333.761,132.485 335.474,132.485 336.33,124.188 334.617,124.188 		"/>
		
			<linearGradient id="SVGID_46_" gradientUnits="userSpaceOnUse" x1="1074.5962" y1="124.2627" x2="1074.5962" y2="132.5596" gradientTransform="matrix(-1 0 0 1 1411.8389 0)">
			<stop  offset="0" style="stop-color:#636466"/>
			<stop  offset="0.1636" style="stop-color:#D9DADC"/>
			<stop  offset="0.5606" style="stop-color:#A5A7A9"/>
			<stop  offset="0.8409" style="stop-color:#565759"/>
			<stop  offset="1" style="stop-color:#2E2E2F"/>
		</linearGradient>
		<polygon opacity="0.7" fill="url(#SVGID_46_)" points="335.958,132.485 337.669,132.485 338.527,124.188 336.814,124.188 		"/>
		<linearGradient id="SVGID_47_" gradientUnits="userSpaceOnUse" x1="337.2427" y1="124.2637" x2="337.2427" y2="132.5605">
			<stop  offset="0" style="stop-color:#636466"/>
			<stop  offset="0.1636" style="stop-color:#D9DADC"/>
			<stop  offset="0.5606" style="stop-color:#A5A7A9"/>
			<stop  offset="0.8409" style="stop-color:#565759"/>
			<stop  offset="1" style="stop-color:#2E2E2F"/>
		</linearGradient>
		<polygon fill="url(#SVGID_47_)" points="338.527,132.485 336.814,132.485 335.958,124.188 337.671,124.188 		"/>
		<linearGradient id="SVGID_48_" gradientUnits="userSpaceOnUse" x1="335.0454" y1="124.2637" x2="335.0454" y2="132.5605">
			<stop  offset="0" style="stop-color:#636466"/>
			<stop  offset="0.1636" style="stop-color:#D9DADC"/>
			<stop  offset="0.5606" style="stop-color:#A5A7A9"/>
			<stop  offset="0.8409" style="stop-color:#565759"/>
			<stop  offset="1" style="stop-color:#2E2E2F"/>
		</linearGradient>
		<polygon fill="url(#SVGID_48_)" points="336.33,132.485 334.619,132.485 333.761,124.188 335.474,124.188 		"/>
		<linearGradient id="SVGID_49_" gradientUnits="userSpaceOnUse" x1="332.8501" y1="124.2637" x2="332.8501" y2="132.5605">
			<stop  offset="0" style="stop-color:#636466"/>
			<stop  offset="0.1636" style="stop-color:#D9DADC"/>
			<stop  offset="0.5606" style="stop-color:#A5A7A9"/>
			<stop  offset="0.8409" style="stop-color:#565759"/>
			<stop  offset="1" style="stop-color:#2E2E2F"/>
		</linearGradient>
		<polygon fill="url(#SVGID_49_)" points="334.134,132.485 332.421,132.485 331.566,124.188 333.277,124.188 		"/>
		<linearGradient id="SVGID_50_" gradientUnits="userSpaceOnUse" x1="330.6528" y1="124.2637" x2="330.6528" y2="132.5605">
			<stop  offset="0" style="stop-color:#636466"/>
			<stop  offset="0.1636" style="stop-color:#D9DADC"/>
			<stop  offset="0.5606" style="stop-color:#A5A7A9"/>
			<stop  offset="0.8409" style="stop-color:#565759"/>
			<stop  offset="1" style="stop-color:#2E2E2F"/>
		</linearGradient>
		<polygon fill="url(#SVGID_50_)" points="331.937,132.485 330.224,132.485 329.369,124.188 331.082,124.188 		"/>
		<g>
			<g>
				
					<line fill="none" stroke="#E5E523" stroke-width="0.1394" stroke-linecap="round" stroke-linejoin="round" x1="327.896" y1="124.188" x2="328.847" y2="131.964"/>
				<g>
					<polygon fill="#E5E523" points="328.634,131.929 328.884,132.263 329.048,131.878 					"/>
				</g>
			</g>
		</g>
		<g opacity="0.4">
			<g>
				
					<line fill="none" stroke="#E5E523" stroke-width="0.1394" stroke-linecap="round" stroke-linejoin="round" x1="326.791" y1="132.089" x2="327.714" y2="124.442"/>
				<g>
					<polygon fill="#E5E523" points="327.914,124.528 327.75,124.144 327.5,124.478 					"/>
				</g>
			</g>
		</g>
		<g>
			<g>
				
					<line fill="none" stroke="#E5E523" stroke-width="0.1394" stroke-linecap="round" stroke-linejoin="round" x1="330.13" y1="124.188" x2="331.082" y2="131.964"/>
				<g>
					<polygon fill="#E5E523" points="330.867,131.929 331.117,132.263 331.281,131.878 					"/>
				</g>
			</g>
		</g>
		<g opacity="0.4">
			<g>
				
					<line fill="none" stroke="#E5E523" stroke-width="0.1394" stroke-linecap="round" stroke-linejoin="round" x1="328.884" y1="132.089" x2="329.943" y2="124.44"/>
				<g>
					<polygon fill="#E5E523" points="330.14,124.53 329.984,124.144 329.728,124.474 					"/>
				</g>
			</g>
		</g>
		<g>
			<g>
				
					<line fill="none" stroke="#E5E523" stroke-width="0.1394" stroke-linecap="round" stroke-linejoin="round" x1="332.279" y1="124.188" x2="333.23" y2="131.964"/>
				<g>
					<polygon fill="#E5E523" points="333.015,131.929 333.267,132.263 333.429,131.878 					"/>
				</g>
			</g>
		</g>
		<g opacity="0.4">
			<g>
				
					<line fill="none" stroke="#E5E523" stroke-width="0.1394" stroke-linecap="round" stroke-linejoin="round" x1="331.173" y1="132.089" x2="332.095" y2="124.442"/>
				<g>
					<polygon fill="#E5E523" points="332.296,124.528 332.132,124.144 331.882,124.478 					"/>
				</g>
			</g>
		</g>
		<g>
			<g>
				
					<line fill="none" stroke="#E5E523" stroke-width="0.1394" stroke-linecap="round" stroke-linejoin="round" x1="334.429" y1="124.188" x2="335.378" y2="131.964"/>
				<g>
					<polygon fill="#E5E523" points="335.166,131.929 335.416,132.263 335.58,131.878 					"/>
				</g>
			</g>
		</g>
		<g opacity="0.4">
			<g>
				
					<line fill="none" stroke="#E5E523" stroke-width="0.1394" stroke-linecap="round" stroke-linejoin="round" x1="333.322" y1="132.089" x2="334.246" y2="124.442"/>
				<g>
					<polygon fill="#E5E523" points="334.445,124.528 334.281,124.144 334.031,124.478 					"/>
				</g>
			</g>
		</g>
		<g>
			<g>
				
					<line fill="none" stroke="#E5E523" stroke-width="0.1394" stroke-linecap="round" stroke-linejoin="round" x1="336.578" y1="124.188" x2="337.529" y2="131.964"/>
				<g>
					<polygon fill="#E5E523" points="337.314,131.929 337.566,132.263 337.728,131.878 					"/>
				</g>
			</g>
		</g>
		<g opacity="0.4">
			<g>
				
					<line fill="none" stroke="#E5E523" stroke-width="0.1394" stroke-linecap="round" stroke-linejoin="round" x1="335.472" y1="132.089" x2="336.394" y2="124.442"/>
				<g>
					<polygon fill="#E5E523" points="336.593,124.528 336.431,124.144 336.179,124.478 					"/>
				</g>
			</g>
		</g>
		<g opacity="0.4">
			<g>
				
					<line fill="none" stroke="#E5E523" stroke-width="0.1394" stroke-linecap="round" stroke-linejoin="round" x1="337.65" y1="132.089" x2="338.574" y2="124.442"/>
				<g>
					<polygon fill="#E5E523" points="338.773,124.528 338.609,124.144 338.359,124.478 					"/>
				</g>
			</g>
		</g>
	</g>
	<g opacity="0.5">
		
			<linearGradient id="SVGID_51_" gradientUnits="userSpaceOnUse" x1="1094.3403" y1="124.2627" x2="1094.3403" y2="132.5596" gradientTransform="matrix(-1 0 0 1 1411.8389 0)">
			<stop  offset="0" style="stop-color:#636466"/>
			<stop  offset="0.1636" style="stop-color:#D9DADC"/>
			<stop  offset="0.5606" style="stop-color:#A5A7A9"/>
			<stop  offset="0.8409" style="stop-color:#565759"/>
			<stop  offset="1" style="stop-color:#2E2E2F"/>
		</linearGradient>
		<polygon opacity="0.7" fill="url(#SVGID_51_)" points="316.214,132.485 317.927,132.485 318.783,124.188 317.072,124.188 		"/>
		
			<linearGradient id="SVGID_52_" gradientUnits="userSpaceOnUse" x1="1096.5747" y1="124.2627" x2="1096.5747" y2="132.5596" gradientTransform="matrix(-1 0 0 1 1411.8389 0)">
			<stop  offset="0" style="stop-color:#636466"/>
			<stop  offset="0.1636" style="stop-color:#D9DADC"/>
			<stop  offset="0.5606" style="stop-color:#A5A7A9"/>
			<stop  offset="0.8409" style="stop-color:#565759"/>
			<stop  offset="1" style="stop-color:#2E2E2F"/>
		</linearGradient>
		<polygon opacity="0.7" fill="url(#SVGID_52_)" points="313.98,132.485 315.693,132.485 316.548,124.188 314.837,124.188 		"/>
		
			<linearGradient id="SVGID_53_" gradientUnits="userSpaceOnUse" x1="1092.1431" y1="124.2627" x2="1092.1431" y2="132.5596" gradientTransform="matrix(-1 0 0 1 1411.8389 0)">
			<stop  offset="0" style="stop-color:#636466"/>
			<stop  offset="0.1636" style="stop-color:#D9DADC"/>
			<stop  offset="0.5606" style="stop-color:#A5A7A9"/>
			<stop  offset="0.8409" style="stop-color:#565759"/>
			<stop  offset="1" style="stop-color:#2E2E2F"/>
		</linearGradient>
		<polygon opacity="0.7" fill="url(#SVGID_53_)" points="318.412,132.485 320.125,132.485 320.98,124.188 319.267,124.188 		"/>
		
			<linearGradient id="SVGID_54_" gradientUnits="userSpaceOnUse" x1="1089.9468" y1="124.2627" x2="1089.9468" y2="132.5596" gradientTransform="matrix(-1 0 0 1 1411.8389 0)">
			<stop  offset="0" style="stop-color:#636466"/>
			<stop  offset="0.1636" style="stop-color:#D9DADC"/>
			<stop  offset="0.5606" style="stop-color:#A5A7A9"/>
			<stop  offset="0.8409" style="stop-color:#565759"/>
			<stop  offset="1" style="stop-color:#2E2E2F"/>
		</linearGradient>
		<polygon opacity="0.7" fill="url(#SVGID_54_)" points="320.607,132.485 322.32,132.485 323.177,124.188 321.464,124.188 		"/>
		
			<linearGradient id="SVGID_55_" gradientUnits="userSpaceOnUse" x1="1087.7505" y1="124.2627" x2="1087.7505" y2="132.5596" gradientTransform="matrix(-1 0 0 1 1411.8389 0)">
			<stop  offset="0" style="stop-color:#636466"/>
			<stop  offset="0.1636" style="stop-color:#D9DADC"/>
			<stop  offset="0.5606" style="stop-color:#A5A7A9"/>
			<stop  offset="0.8409" style="stop-color:#565759"/>
			<stop  offset="1" style="stop-color:#2E2E2F"/>
		</linearGradient>
		<polygon opacity="0.7" fill="url(#SVGID_55_)" points="322.804,132.485 324.517,132.485 325.373,124.188 323.66,124.188 		"/>
		
			<linearGradient id="SVGID_56_" gradientUnits="userSpaceOnUse" x1="1085.5532" y1="124.2627" x2="1085.5532" y2="132.5596" gradientTransform="matrix(-1 0 0 1 1411.8389 0)">
			<stop  offset="0" style="stop-color:#636466"/>
			<stop  offset="0.1636" style="stop-color:#D9DADC"/>
			<stop  offset="0.5606" style="stop-color:#A5A7A9"/>
			<stop  offset="0.8409" style="stop-color:#565759"/>
			<stop  offset="1" style="stop-color:#2E2E2F"/>
		</linearGradient>
		<polygon opacity="0.7" fill="url(#SVGID_56_)" points="325.001,132.485 326.714,132.485 327.57,124.188 325.857,124.188 		"/>
		
			<linearGradient id="SVGID_57_" gradientUnits="userSpaceOnUse" x1="1083.3569" y1="124.2627" x2="1083.3569" y2="132.5596" gradientTransform="matrix(-1 0 0 1 1411.8389 0)">
			<stop  offset="0" style="stop-color:#636466"/>
			<stop  offset="0.1636" style="stop-color:#D9DADC"/>
			<stop  offset="0.5606" style="stop-color:#A5A7A9"/>
			<stop  offset="0.8409" style="stop-color:#565759"/>
			<stop  offset="1" style="stop-color:#2E2E2F"/>
		</linearGradient>
		<polygon opacity="0.7" fill="url(#SVGID_57_)" points="327.197,132.485 328.91,132.485 329.767,124.188 328.054,124.188 		"/>
		<linearGradient id="SVGID_58_" gradientUnits="userSpaceOnUse" x1="305.395" y1="127.5186" x2="305.395" y2="129.8389">
			<stop  offset="0" style="stop-color:#111111"/>
			<stop  offset="0.1636" style="stop-color:#D9DADC"/>
			<stop  offset="0.3047" style="stop-color:#FFFFFF"/>
			<stop  offset="0.4118" style="stop-color:#A5A7A9"/>
			<stop  offset="0.8331" style="stop-color:#000000"/>
			<stop  offset="0.855" style="stop-color:#000000"/>
			<stop  offset="0.9469" style="stop-color:#000000"/>
		</linearGradient>
		<rect x="298.433" y="127.497" fill="url(#SVGID_58_)" width="13.924" height="2.32"/>
		<linearGradient id="SVGID_59_" gradientUnits="userSpaceOnUse" x1="350.2407" y1="127.5186" x2="350.2407" y2="129.8389">
			<stop  offset="0" style="stop-color:#111111"/>
			<stop  offset="0.1636" style="stop-color:#D9DADC"/>
			<stop  offset="0.3047" style="stop-color:#FFFFFF"/>
			<stop  offset="0.4118" style="stop-color:#A5A7A9"/>
			<stop  offset="0.8331" style="stop-color:#000000"/>
			<stop  offset="0.855" style="stop-color:#000000"/>
			<stop  offset="0.9469" style="stop-color:#000000"/>
		</linearGradient>
		<rect x="343.279" y="127.497" fill="url(#SVGID_59_)" width="13.924" height="2.32"/>
		<linearGradient id="SVGID_60_" gradientUnits="userSpaceOnUse" x1="341.48" y1="123.4111" x2="341.48" y2="133.5049">
			<stop  offset="0" style="stop-color:#111111"/>
			<stop  offset="0.1636" style="stop-color:#D9DADC"/>
			<stop  offset="0.3047" style="stop-color:#FFFFFF"/>
			<stop  offset="0.4118" style="stop-color:#A5A7A9"/>
			<stop  offset="0.8331" style="stop-color:#000000"/>
			<stop  offset="0.855" style="stop-color:#000000"/>
			<stop  offset="0.9469" style="stop-color:#000000"/>
		</linearGradient>
		<rect x="339.74" y="123.319" fill="url(#SVGID_60_)" width="3.48" height="10.094"/>
		<linearGradient id="SVGID_61_" gradientUnits="userSpaceOnUse" x1="314.0972" y1="123.4111" x2="314.0972" y2="133.5049">
			<stop  offset="0" style="stop-color:#111111"/>
			<stop  offset="0.1636" style="stop-color:#D9DADC"/>
			<stop  offset="0.3047" style="stop-color:#FFFFFF"/>
			<stop  offset="0.4118" style="stop-color:#A5A7A9"/>
			<stop  offset="0.8331" style="stop-color:#000000"/>
			<stop  offset="0.855" style="stop-color:#000000"/>
			<stop  offset="0.9469" style="stop-color:#000000"/>
		</linearGradient>
		<rect x="312.357" y="123.319" fill="url(#SVGID_61_)" width="3.48" height="10.094"/>
		<linearGradient id="SVGID_62_" gradientUnits="userSpaceOnUse" x1="327.6626" y1="125.1211" x2="327.6626" y2="131.8496">
			<stop  offset="0" style="stop-color:#111111"/>
			<stop  offset="0.4989" style="stop-color:#565759"/>
			<stop  offset="0.6407" style="stop-color:#525355"/>
			<stop  offset="0.7876" style="stop-color:#474749"/>
			<stop  offset="0.9364" style="stop-color:#252526"/>
			<stop  offset="1" style="stop-color:#000000"/>
		</linearGradient>
		<rect x="314.39" y="125.06" fill="url(#SVGID_62_)" width="26.545" height="6.729"/>
		<linearGradient id="SVGID_63_" gradientUnits="userSpaceOnUse" x1="340.0005" y1="124.2637" x2="340.0005" y2="132.5605">
			<stop  offset="0" style="stop-color:#636466"/>
			<stop  offset="0.1636" style="stop-color:#D9DADC"/>
			<stop  offset="0.5606" style="stop-color:#A5A7A9"/>
			<stop  offset="0.8409" style="stop-color:#565759"/>
			<stop  offset="1" style="stop-color:#2E2E2F"/>
		</linearGradient>
		<polygon fill="url(#SVGID_63_)" points="342.001,132.485 338.937,132.485 338,124.188 342.001,124.188 		"/>
		<linearGradient id="SVGID_64_" gradientUnits="userSpaceOnUse" x1="328.4829" y1="124.2637" x2="328.4829" y2="132.5605">
			<stop  offset="0" style="stop-color:#636466"/>
			<stop  offset="0.1636" style="stop-color:#D9DADC"/>
			<stop  offset="0.5606" style="stop-color:#A5A7A9"/>
			<stop  offset="0.8409" style="stop-color:#565759"/>
			<stop  offset="1" style="stop-color:#2E2E2F"/>
		</linearGradient>
		<polygon fill="url(#SVGID_64_)" points="329.767,132.485 328.054,132.485 327.199,124.188 328.91,124.188 		"/>
		<linearGradient id="SVGID_65_" gradientUnits="userSpaceOnUse" x1="326.2856" y1="124.2637" x2="326.2856" y2="132.5605">
			<stop  offset="0" style="stop-color:#636466"/>
			<stop  offset="0.1636" style="stop-color:#D9DADC"/>
			<stop  offset="0.5606" style="stop-color:#A5A7A9"/>
			<stop  offset="0.8409" style="stop-color:#565759"/>
			<stop  offset="1" style="stop-color:#2E2E2F"/>
		</linearGradient>
		<polygon fill="url(#SVGID_65_)" points="327.57,132.485 325.857,132.485 325.001,124.188 326.714,124.188 		"/>
		<linearGradient id="SVGID_66_" gradientUnits="userSpaceOnUse" x1="324.0884" y1="124.2637" x2="324.0884" y2="132.5605">
			<stop  offset="0" style="stop-color:#636466"/>
			<stop  offset="0.1636" style="stop-color:#D9DADC"/>
			<stop  offset="0.5606" style="stop-color:#A5A7A9"/>
			<stop  offset="0.8409" style="stop-color:#565759"/>
			<stop  offset="1" style="stop-color:#2E2E2F"/>
		</linearGradient>
		<polygon fill="url(#SVGID_66_)" points="325.373,132.485 323.662,132.485 322.804,124.188 324.517,124.188 		"/>
		<linearGradient id="SVGID_67_" gradientUnits="userSpaceOnUse" x1="321.8931" y1="124.2637" x2="321.8931" y2="132.5605">
			<stop  offset="0" style="stop-color:#636466"/>
			<stop  offset="0.1636" style="stop-color:#D9DADC"/>
			<stop  offset="0.5606" style="stop-color:#A5A7A9"/>
			<stop  offset="0.8409" style="stop-color:#565759"/>
			<stop  offset="1" style="stop-color:#2E2E2F"/>
		</linearGradient>
		<polygon fill="url(#SVGID_67_)" points="323.177,132.485 321.464,132.485 320.609,124.188 322.32,124.188 		"/>
		<linearGradient id="SVGID_68_" gradientUnits="userSpaceOnUse" x1="319.6958" y1="124.2637" x2="319.6958" y2="132.5605">
			<stop  offset="0" style="stop-color:#636466"/>
			<stop  offset="0.1636" style="stop-color:#D9DADC"/>
			<stop  offset="0.5606" style="stop-color:#A5A7A9"/>
			<stop  offset="0.8409" style="stop-color:#565759"/>
			<stop  offset="1" style="stop-color:#2E2E2F"/>
		</linearGradient>
		<polygon fill="url(#SVGID_68_)" points="320.98,132.485 319.267,132.485 318.412,124.188 320.125,124.188 		"/>
		<linearGradient id="SVGID_69_" gradientUnits="userSpaceOnUse" x1="317.4995" y1="124.2637" x2="317.4995" y2="132.5605">
			<stop  offset="0" style="stop-color:#636466"/>
			<stop  offset="0.1636" style="stop-color:#D9DADC"/>
			<stop  offset="0.5606" style="stop-color:#A5A7A9"/>
			<stop  offset="0.8409" style="stop-color:#565759"/>
			<stop  offset="1" style="stop-color:#2E2E2F"/>
		</linearGradient>
		<polygon fill="url(#SVGID_69_)" points="318.785,132.485 317.072,132.485 316.214,124.188 317.927,124.188 		"/>
		<linearGradient id="SVGID_70_" gradientUnits="userSpaceOnUse" x1="315.3032" y1="124.2637" x2="315.3032" y2="132.5605">
			<stop  offset="0" style="stop-color:#636466"/>
			<stop  offset="0.1636" style="stop-color:#D9DADC"/>
			<stop  offset="0.5606" style="stop-color:#A5A7A9"/>
			<stop  offset="0.8409" style="stop-color:#565759"/>
			<stop  offset="1" style="stop-color:#2E2E2F"/>
		</linearGradient>
		<polygon fill="url(#SVGID_70_)" points="316.587,132.485 314.056,132.485 314.019,124.188 315.732,124.188 		"/>
		<g>
			<g>
				<polyline fill="none" stroke="#E5E523" stroke-width="0.174" stroke-linecap="round" stroke-linejoin="round" points="
					295.212,128.657 314.685,128.657 315.24,131.894 				"/>
				<g>
					<polygon fill="#E5E523" points="314.97,131.862 315.302,132.263 315.484,131.774 					"/>
				</g>
			</g>
		</g>
		<g>
			<g>
				
					<line fill="none" stroke="#E5E523" stroke-width="0.1394" stroke-linecap="round" stroke-linejoin="round" x1="317.042" y1="124.188" x2="317.994" y2="131.964"/>
				<g>
					<polygon fill="#E5E523" points="317.779,131.929 318.031,132.263 318.193,131.878 					"/>
				</g>
			</g>
		</g>
		<g opacity="0.4">
			<g>
				
					<line fill="none" stroke="#E5E523" stroke-width="0.1394" stroke-linecap="round" stroke-linejoin="round" x1="315.38" y1="132.089" x2="316.839" y2="124.438"/>
				<g>
					<polygon fill="#E5E523" points="317.033,124.538 316.896,124.144 316.623,124.46 					"/>
				</g>
			</g>
		</g>
		<g>
			<g>
				
					<line fill="none" stroke="#E5E523" stroke-width="0.1394" stroke-linecap="round" stroke-linejoin="round" x1="319.136" y1="124.188" x2="320.087" y2="131.964"/>
				<g>
					<polygon fill="#E5E523" points="319.873,131.929 320.125,132.263 320.287,131.878 					"/>
				</g>
			</g>
		</g>
		<g opacity="0.4">
			<g>
				
					<line fill="none" stroke="#E5E523" stroke-width="0.1394" stroke-linecap="round" stroke-linejoin="round" x1="318.031" y1="132.089" x2="318.953" y2="124.442"/>
				<g>
					<polygon fill="#E5E523" points="319.152,124.528 318.99,124.144 318.738,124.478 					"/>
				</g>
			</g>
		</g>
		<g>
			<g>
				
					<line fill="none" stroke="#E5E523" stroke-width="0.1394" stroke-linecap="round" stroke-linejoin="round" x1="321.371" y1="124.188" x2="322.32" y2="131.964"/>
				<g>
					<polygon fill="#E5E523" points="322.107,131.929 322.357,132.263 322.521,131.878 					"/>
				</g>
			</g>
		</g>
		<g opacity="0.4">
			<g>
				
					<line fill="none" stroke="#E5E523" stroke-width="0.1394" stroke-linecap="round" stroke-linejoin="round" x1="320.125" y1="132.089" x2="321.181" y2="124.44"/>
				<g>
					<polygon fill="#E5E523" points="321.38,124.53 321.222,124.144 320.966,124.474 					"/>
				</g>
			</g>
		</g>
		<g>
			<g>
				
					<line fill="none" stroke="#E5E523" stroke-width="0.1394" stroke-linecap="round" stroke-linejoin="round" x1="323.519" y1="124.188" x2="324.47" y2="131.964"/>
				<g>
					<polygon fill="#E5E523" points="324.255,131.929 324.505,132.263 324.669,131.878 					"/>
				</g>
			</g>
		</g>
		<g opacity="0.4">
			<g>
				
					<line fill="none" stroke="#E5E523" stroke-width="0.1394" stroke-linecap="round" stroke-linejoin="round" x1="322.414" y1="132.089" x2="323.335" y2="124.442"/>
				<g>
					<polygon fill="#E5E523" points="323.535,124.528 323.373,124.144 323.121,124.478 					"/>
				</g>
			</g>
		</g>
		<g>
			<g>
				
					<line fill="none" stroke="#E5E523" stroke-width="0.1394" stroke-linecap="round" stroke-linejoin="round" x1="325.667" y1="124.188" x2="326.619" y2="131.964"/>
				<g>
					<polygon fill="#E5E523" points="326.404,131.929 326.656,132.263 326.818,131.878 					"/>
				</g>
			</g>
		</g>
		<g opacity="0.4">
			<g>
				
					<line fill="none" stroke="#E5E523" stroke-width="0.1394" stroke-linecap="round" stroke-linejoin="round" x1="324.562" y1="132.089" x2="325.486" y2="124.442"/>
				<g>
					<polygon fill="#E5E523" points="325.685,124.528 325.521,124.144 325.271,124.478 					"/>
				</g>
			</g>
		</g>
		<g>
			<path fill="none" d="M328.804,132.263"/>
		</g>
		<g>
			<path fill="none" d="M327.818,124.188"/>
		</g>
		<g opacity="0.4">
			<path fill="none" d="M327.669,124.144"/>
		</g>
		<g opacity="0.4">
			<path fill="none" d="M326.71,132.089"/>
		</g>
		<g>
			<g>
				<polyline fill="none" stroke="#E5E523" stroke-width="0.174" stroke-linecap="round" stroke-linejoin="round" points="
					338.73,124.188 339.789,128.657 350.097,128.657 				"/>
				<g>
					<polygon fill="#E5E523" points="350.021,128.917 350.472,128.657 350.021,128.396 					"/>
				</g>
			</g>
		</g>
		<g opacity="0.4">
			<g>
				
					<line fill="none" stroke="#E5E523" stroke-width="0.1394" stroke-linecap="round" stroke-linejoin="round" x1="328.89" y1="132.089" x2="329.814" y2="124.442"/>
				<g>
					<polygon fill="#E5E523" points="330.013,124.528 329.849,124.144 329.599,124.478 					"/>
				</g>
			</g>
		</g>
		
			<linearGradient id="SVGID_71_" gradientUnits="userSpaceOnUse" x1="1083.3833" y1="124.2627" x2="1083.3833" y2="132.5596" gradientTransform="matrix(-1 0 0 1 1411.8389 0)">
			<stop  offset="0" style="stop-color:#636466"/>
			<stop  offset="0.1636" style="stop-color:#D9DADC"/>
			<stop  offset="0.5606" style="stop-color:#A5A7A9"/>
			<stop  offset="0.8409" style="stop-color:#565759"/>
			<stop  offset="1" style="stop-color:#2E2E2F"/>
		</linearGradient>
		<polygon opacity="0.7" fill="url(#SVGID_71_)" points="327.171,132.485 328.884,132.485 329.74,124.188 328.027,124.188 		"/>
		
			<linearGradient id="SVGID_72_" gradientUnits="userSpaceOnUse" x1="1081.186" y1="124.2627" x2="1081.186" y2="132.5596" gradientTransform="matrix(-1 0 0 1 1411.8389 0)">
			<stop  offset="0" style="stop-color:#636466"/>
			<stop  offset="0.1636" style="stop-color:#D9DADC"/>
			<stop  offset="0.5606" style="stop-color:#A5A7A9"/>
			<stop  offset="0.8409" style="stop-color:#565759"/>
			<stop  offset="1" style="stop-color:#2E2E2F"/>
		</linearGradient>
		<polygon opacity="0.7" fill="url(#SVGID_72_)" points="329.369,132.485 331.08,132.485 331.937,124.188 330.224,124.188 		"/>
		
			<linearGradient id="SVGID_73_" gradientUnits="userSpaceOnUse" x1="1078.9907" y1="124.2627" x2="1078.9907" y2="132.5596" gradientTransform="matrix(-1 0 0 1 1411.8389 0)">
			<stop  offset="0" style="stop-color:#636466"/>
			<stop  offset="0.1636" style="stop-color:#D9DADC"/>
			<stop  offset="0.5606" style="stop-color:#A5A7A9"/>
			<stop  offset="0.8409" style="stop-color:#565759"/>
			<stop  offset="1" style="stop-color:#2E2E2F"/>
		</linearGradient>
		<polygon opacity="0.7" fill="url(#SVGID_73_)" points="331.564,132.485 333.277,132.485 334.132,124.188 332.421,124.188 		"/>
		
			<linearGradient id="SVGID_74_" gradientUnits="userSpaceOnUse" x1="1076.7935" y1="124.2627" x2="1076.7935" y2="132.5596" gradientTransform="matrix(-1 0 0 1 1411.8389 0)">
			<stop  offset="0" style="stop-color:#636466"/>
			<stop  offset="0.1636" style="stop-color:#D9DADC"/>
			<stop  offset="0.5606" style="stop-color:#A5A7A9"/>
			<stop  offset="0.8409" style="stop-color:#565759"/>
			<stop  offset="1" style="stop-color:#2E2E2F"/>
		</linearGradient>
		<polygon opacity="0.7" fill="url(#SVGID_74_)" points="333.761,132.485 335.474,132.485 336.33,124.188 334.617,124.188 		"/>
		
			<linearGradient id="SVGID_75_" gradientUnits="userSpaceOnUse" x1="1074.5962" y1="124.2627" x2="1074.5962" y2="132.5596" gradientTransform="matrix(-1 0 0 1 1411.8389 0)">
			<stop  offset="0" style="stop-color:#636466"/>
			<stop  offset="0.1636" style="stop-color:#D9DADC"/>
			<stop  offset="0.5606" style="stop-color:#A5A7A9"/>
			<stop  offset="0.8409" style="stop-color:#565759"/>
			<stop  offset="1" style="stop-color:#2E2E2F"/>
		</linearGradient>
		<polygon opacity="0.7" fill="url(#SVGID_75_)" points="335.958,132.485 337.669,132.485 338.527,124.188 336.814,124.188 		"/>
		<linearGradient id="SVGID_76_" gradientUnits="userSpaceOnUse" x1="337.2427" y1="124.2637" x2="337.2427" y2="132.5605">
			<stop  offset="0" style="stop-color:#636466"/>
			<stop  offset="0.1636" style="stop-color:#D9DADC"/>
			<stop  offset="0.5606" style="stop-color:#A5A7A9"/>
			<stop  offset="0.8409" style="stop-color:#565759"/>
			<stop  offset="1" style="stop-color:#2E2E2F"/>
		</linearGradient>
		<polygon fill="url(#SVGID_76_)" points="338.527,132.485 336.814,132.485 335.958,124.188 337.671,124.188 		"/>
		<linearGradient id="SVGID_77_" gradientUnits="userSpaceOnUse" x1="335.0454" y1="124.2637" x2="335.0454" y2="132.5605">
			<stop  offset="0" style="stop-color:#636466"/>
			<stop  offset="0.1636" style="stop-color:#D9DADC"/>
			<stop  offset="0.5606" style="stop-color:#A5A7A9"/>
			<stop  offset="0.8409" style="stop-color:#565759"/>
			<stop  offset="1" style="stop-color:#2E2E2F"/>
		</linearGradient>
		<polygon fill="url(#SVGID_77_)" points="336.33,132.485 334.619,132.485 333.761,124.188 335.474,124.188 		"/>
		<linearGradient id="SVGID_78_" gradientUnits="userSpaceOnUse" x1="332.8501" y1="124.2637" x2="332.8501" y2="132.5605">
			<stop  offset="0" style="stop-color:#636466"/>
			<stop  offset="0.1636" style="stop-color:#D9DADC"/>
			<stop  offset="0.5606" style="stop-color:#A5A7A9"/>
			<stop  offset="0.8409" style="stop-color:#565759"/>
			<stop  offset="1" style="stop-color:#2E2E2F"/>
		</linearGradient>
		<polygon fill="url(#SVGID_78_)" points="334.134,132.485 332.421,132.485 331.566,124.188 333.277,124.188 		"/>
		<linearGradient id="SVGID_79_" gradientUnits="userSpaceOnUse" x1="330.6528" y1="124.2637" x2="330.6528" y2="132.5605">
			<stop  offset="0" style="stop-color:#636466"/>
			<stop  offset="0.1636" style="stop-color:#D9DADC"/>
			<stop  offset="0.5606" style="stop-color:#A5A7A9"/>
			<stop  offset="0.8409" style="stop-color:#565759"/>
			<stop  offset="1" style="stop-color:#2E2E2F"/>
		</linearGradient>
		<polygon fill="url(#SVGID_79_)" points="331.937,132.485 330.224,132.485 329.369,124.188 331.082,124.188 		"/>
		<g>
			<g>
				
					<line fill="none" stroke="#E5E523" stroke-width="0.1394" stroke-linecap="round" stroke-linejoin="round" x1="327.896" y1="124.188" x2="328.847" y2="131.964"/>
				<g>
					<polygon fill="#E5E523" points="328.634,131.929 328.884,132.263 329.048,131.878 					"/>
				</g>
			</g>
		</g>
		<g opacity="0.4">
			<g>
				
					<line fill="none" stroke="#E5E523" stroke-width="0.1394" stroke-linecap="round" stroke-linejoin="round" x1="326.791" y1="132.089" x2="327.714" y2="124.442"/>
				<g>
					<polygon fill="#E5E523" points="327.914,124.528 327.75,124.144 327.5,124.478 					"/>
				</g>
			</g>
		</g>
		<g>
			<g>
				
					<line fill="none" stroke="#E5E523" stroke-width="0.1394" stroke-linecap="round" stroke-linejoin="round" x1="330.13" y1="124.188" x2="331.082" y2="131.964"/>
				<g>
					<polygon fill="#E5E523" points="330.867,131.929 331.117,132.263 331.281,131.878 					"/>
				</g>
			</g>
		</g>
		<g opacity="0.4">
			<g>
				
					<line fill="none" stroke="#E5E523" stroke-width="0.1394" stroke-linecap="round" stroke-linejoin="round" x1="328.884" y1="132.089" x2="329.943" y2="124.44"/>
				<g>
					<polygon fill="#E5E523" points="330.14,124.53 329.984,124.144 329.728,124.474 					"/>
				</g>
			</g>
		</g>
		<g>
			<g>
				
					<line fill="none" stroke="#E5E523" stroke-width="0.1394" stroke-linecap="round" stroke-linejoin="round" x1="332.279" y1="124.188" x2="333.23" y2="131.964"/>
				<g>
					<polygon fill="#E5E523" points="333.015,131.929 333.267,132.263 333.429,131.878 					"/>
				</g>
			</g>
		</g>
		<g opacity="0.4">
			<g>
				
					<line fill="none" stroke="#E5E523" stroke-width="0.1394" stroke-linecap="round" stroke-linejoin="round" x1="331.173" y1="132.089" x2="332.095" y2="124.442"/>
				<g>
					<polygon fill="#E5E523" points="332.296,124.528 332.132,124.144 331.882,124.478 					"/>
				</g>
			</g>
		</g>
		<g>
			<g>
				
					<line fill="none" stroke="#E5E523" stroke-width="0.1394" stroke-linecap="round" stroke-linejoin="round" x1="334.429" y1="124.188" x2="335.378" y2="131.964"/>
				<g>
					<polygon fill="#E5E523" points="335.166,131.929 335.416,132.263 335.58,131.878 					"/>
				</g>
			</g>
		</g>
		<g opacity="0.4">
			<g>
				
					<line fill="none" stroke="#E5E523" stroke-width="0.1394" stroke-linecap="round" stroke-linejoin="round" x1="333.322" y1="132.089" x2="334.246" y2="124.442"/>
				<g>
					<polygon fill="#E5E523" points="334.445,124.528 334.281,124.144 334.031,124.478 					"/>
				</g>
			</g>
		</g>
		<g>
			<g>
				
					<line fill="none" stroke="#E5E523" stroke-width="0.1394" stroke-linecap="round" stroke-linejoin="round" x1="336.578" y1="124.188" x2="337.529" y2="131.964"/>
				<g>
					<polygon fill="#E5E523" points="337.314,131.929 337.566,132.263 337.728,131.878 					"/>
				</g>
			</g>
		</g>
		<g opacity="0.4">
			<g>
				
					<line fill="none" stroke="#E5E523" stroke-width="0.1394" stroke-linecap="round" stroke-linejoin="round" x1="335.472" y1="132.089" x2="336.394" y2="124.442"/>
				<g>
					<polygon fill="#E5E523" points="336.593,124.528 336.431,124.144 336.179,124.478 					"/>
				</g>
			</g>
		</g>
		<g opacity="0.4">
			<g>
				
					<line fill="none" stroke="#E5E523" stroke-width="0.1394" stroke-linecap="round" stroke-linejoin="round" x1="337.65" y1="132.089" x2="338.574" y2="124.442"/>
				<g>
					<polygon fill="#E5E523" points="338.773,124.528 338.609,124.144 338.359,124.478 					"/>
				</g>
			</g>
		</g>
	</g>
</g>
<g>
</g>
<g>
</g>
<g>
</g>
<g>
</g>
<g>
</g>
<g>
</g>
<g>
</g>
</svg>
